G04 #@! TF.GenerationSoftware,KiCad,Pcbnew,(5.0.0-rc2-dev-130-g0bdae22af-dirty)*
G04 #@! TF.CreationDate,2018-10-04T20:28:42+03:00*
G04 #@! TF.ProjectId,hcu,6863752E6B696361645F706362000000,rev?*
G04 #@! TF.SameCoordinates,Original*
G04 #@! TF.FileFunction,Paste,Top*
G04 #@! TF.FilePolarity,Positive*
%FSLAX46Y46*%
G04 Gerber Fmt 4.6, Leading zero omitted, Abs format (unit mm)*
G04 Created by KiCad (PCBNEW (5.0.0-rc2-dev-130-g0bdae22af-dirty)) date Thu Oct  4 20:28:42 2018*
%MOMM*%
%LPD*%
G01*
G04 APERTURE LIST*
%ADD10R,0.700000X1.350000*%
%ADD11R,0.939800X0.762000*%
%ADD12R,0.762000X0.939800*%
%ADD13R,0.998220X3.997960*%
%ADD14R,2.700000X2.400000*%
%ADD15R,1.399540X1.297940*%
%ADD16R,1.297940X1.399540*%
%ADD17R,1.900000X2.179320*%
%ADD18R,3.300000X2.400000*%
%ADD19R,0.998220X1.899920*%
%ADD20R,1.905000X0.635000*%
%ADD21R,2.600000X1.600000*%
%ADD22R,1.524000X0.600000*%
%ADD23R,1.524000X0.635000*%
%ADD24R,0.398780X1.498600*%
%ADD25R,0.279400X1.498600*%
%ADD26R,1.498600X0.398780*%
%ADD27R,1.498600X0.279400*%
%ADD28R,3.600000X1.900000*%
%ADD29R,0.400000X1.200000*%
%ADD30R,1.300000X2.000000*%
%ADD31R,1.899920X0.998220*%
%ADD32R,1.600000X1.000000*%
%ADD33R,6.300000X6.100000*%
%ADD34R,0.600000X2.000000*%
%ADD35R,0.630000X0.830000*%
G04 APERTURE END LIST*
D10*
X161354139Y-133046000D03*
X159354139Y-133046000D03*
X160354139Y-135646000D03*
D11*
X148000000Y-137038200D03*
X148000000Y-135361800D03*
D12*
X131838200Y-115100000D03*
X130161800Y-115100000D03*
X139938200Y-126500000D03*
X138261800Y-126500000D03*
X148200000Y-118100000D03*
X149876400Y-118100000D03*
X149776400Y-120700000D03*
X148100000Y-120700000D03*
X131938200Y-117600000D03*
X130261800Y-117600000D03*
X136561800Y-110200000D03*
X138238200Y-110200000D03*
X132738200Y-133100000D03*
X131061800Y-133100000D03*
X134761800Y-133100000D03*
X136438200Y-133100000D03*
D11*
X139500000Y-94261800D03*
X139500000Y-95938200D03*
X145900000Y-94261800D03*
X145900000Y-95938200D03*
X152300000Y-95938200D03*
X152300000Y-94261800D03*
X158700000Y-94261800D03*
X158700000Y-95938200D03*
X165100000Y-95938200D03*
X165100000Y-94261800D03*
X171500000Y-94261800D03*
X171500000Y-95938200D03*
X177900000Y-95938200D03*
X177900000Y-94261800D03*
X184300000Y-94261800D03*
X184300000Y-95938200D03*
X190700000Y-94261800D03*
X190700000Y-95938200D03*
X197100000Y-95938200D03*
X197100000Y-94261800D03*
X181800000Y-134761800D03*
X181800000Y-136438200D03*
D13*
X190900000Y-129151620D03*
X190900000Y-136248380D03*
D12*
X176161800Y-131700000D03*
X177838200Y-131700000D03*
D14*
X165500000Y-137200000D03*
X165500000Y-130400000D03*
D12*
X159561800Y-131300000D03*
X161238200Y-131300000D03*
D15*
X139400000Y-83765300D03*
X139400000Y-80234700D03*
X134900000Y-80234700D03*
X134900000Y-83765300D03*
X145900000Y-83765300D03*
X145900000Y-80234700D03*
X141200000Y-80234700D03*
X141200000Y-83765300D03*
X152300000Y-83765300D03*
X152300000Y-80234700D03*
X147700000Y-80234700D03*
X147700000Y-83765300D03*
X158700000Y-83765300D03*
X158700000Y-80234700D03*
X154100000Y-80234700D03*
X154100000Y-83765300D03*
X165100000Y-80234700D03*
X165100000Y-83765300D03*
X160500000Y-80234700D03*
X160500000Y-83765300D03*
X171400000Y-83765300D03*
X171400000Y-80234700D03*
X166900000Y-80234700D03*
X166900000Y-83765300D03*
X177700000Y-83765300D03*
X177700000Y-80234700D03*
X173200000Y-80234700D03*
X173200000Y-83765300D03*
X184200000Y-80234700D03*
X184200000Y-83765300D03*
X179500000Y-80234700D03*
X179500000Y-83765300D03*
X190600000Y-83765300D03*
X190600000Y-80234700D03*
X186000000Y-80234700D03*
X186000000Y-83765300D03*
X197000000Y-83765300D03*
X197000000Y-80234700D03*
X192400000Y-83765300D03*
X192400000Y-80234700D03*
D16*
X188065300Y-117800000D03*
X184534700Y-117800000D03*
D17*
X188600000Y-123800000D03*
X183600000Y-123800000D03*
D18*
X168000000Y-113800000D03*
X168000000Y-107200000D03*
D16*
X172934700Y-129700000D03*
X176465300Y-129700000D03*
D19*
X184801400Y-120500000D03*
X187798600Y-120500000D03*
D20*
X144484857Y-133788334D03*
X139404857Y-133788334D03*
X144484857Y-132518334D03*
X139404857Y-132518334D03*
X144484857Y-131248334D03*
X139404857Y-131248334D03*
X139404857Y-129978334D03*
X144484857Y-128708334D03*
X139404857Y-128708334D03*
D21*
X170600000Y-132900000D03*
X170600000Y-136900000D03*
D12*
X142738200Y-135400000D03*
X141061800Y-135400000D03*
X142738200Y-137200000D03*
X141061800Y-137200000D03*
D11*
X136300000Y-94261800D03*
X136300000Y-95938200D03*
X134700000Y-95938200D03*
X134700000Y-94261800D03*
X144300000Y-94261800D03*
X144300000Y-95938200D03*
X142700000Y-95938200D03*
X142700000Y-94261800D03*
X141100000Y-94261800D03*
X141100000Y-95938200D03*
X150700000Y-95938200D03*
X150700000Y-94261800D03*
X149100000Y-94261800D03*
X149100000Y-95938200D03*
X147500000Y-95938200D03*
X147500000Y-94261800D03*
X157100000Y-94261800D03*
X157100000Y-95938200D03*
X155500000Y-94261800D03*
X155500000Y-95938200D03*
X153900000Y-94261800D03*
X153900000Y-95938200D03*
X163500000Y-94261800D03*
X163500000Y-95938200D03*
X161900000Y-94261800D03*
X161900000Y-95938200D03*
X160300000Y-94261800D03*
X160300000Y-95938200D03*
X169900000Y-94261800D03*
X169900000Y-95938200D03*
X168300000Y-94261800D03*
X168300000Y-95938200D03*
X166700000Y-94261800D03*
X166700000Y-95938200D03*
X176300000Y-95938200D03*
X176300000Y-94261800D03*
X174700000Y-95938200D03*
X174700000Y-94261800D03*
X173100000Y-94261800D03*
X173100000Y-95938200D03*
X182700000Y-94261800D03*
X182700000Y-95938200D03*
X181100000Y-95938200D03*
X181100000Y-94261800D03*
X179500000Y-94261800D03*
X179500000Y-95938200D03*
X189100000Y-94261800D03*
X189100000Y-95938200D03*
X187500000Y-95938200D03*
X187500000Y-94261800D03*
X185900000Y-95938200D03*
X185900000Y-94261800D03*
X195500000Y-94261800D03*
X195500000Y-95938200D03*
X193900000Y-95938200D03*
X193900000Y-94261800D03*
X192300000Y-94261800D03*
X192300000Y-95938200D03*
D22*
X149880957Y-134298266D03*
D23*
X149880957Y-135603266D03*
D22*
X149880957Y-136838266D03*
X149880957Y-138108266D03*
X155722957Y-138108266D03*
X155722957Y-136838266D03*
X155722957Y-135568266D03*
X155722957Y-134298266D03*
D24*
X143723820Y-112555940D03*
D25*
X143162480Y-112555940D03*
X142662100Y-112555940D03*
X142161720Y-112555940D03*
X141661340Y-112555940D03*
X141163500Y-112555940D03*
X140663120Y-112555940D03*
X140162740Y-112555940D03*
X139664900Y-112555940D03*
X139164520Y-112555940D03*
X138664140Y-112555940D03*
X138166300Y-112555940D03*
X137665920Y-112555940D03*
X137165540Y-112555940D03*
X136665160Y-112555940D03*
D24*
X136103820Y-112555940D03*
D26*
X134015940Y-114643820D03*
D27*
X134015940Y-115205160D03*
X134015940Y-115705540D03*
X134015940Y-116205920D03*
X134015940Y-116706300D03*
X134015940Y-117204140D03*
X134015940Y-117704520D03*
X134015940Y-118204900D03*
X134015940Y-118702740D03*
X134015940Y-119203120D03*
X134015940Y-119703500D03*
X134015940Y-120201340D03*
X134015940Y-120701720D03*
X134015940Y-121202100D03*
X134015940Y-121702480D03*
D26*
X134015940Y-122263820D03*
D24*
X136103820Y-124351700D03*
D25*
X136665160Y-124351700D03*
X137165540Y-124351700D03*
X137665920Y-124351700D03*
X138166300Y-124351700D03*
X138664140Y-124351700D03*
X139164520Y-124351700D03*
X139664900Y-124351700D03*
X140162740Y-124351700D03*
X140663120Y-124351700D03*
X141163500Y-124351700D03*
X141661340Y-124351700D03*
X142161720Y-124351700D03*
X142662100Y-124351700D03*
X143162480Y-124351700D03*
D24*
X143723820Y-124351700D03*
D26*
X145811700Y-122263820D03*
D27*
X145811700Y-121702480D03*
X145811700Y-121202100D03*
X145811700Y-120701720D03*
X145811700Y-120201340D03*
X145811700Y-119703500D03*
X145811700Y-119203120D03*
X145811700Y-118702740D03*
X145811700Y-118204900D03*
X145811700Y-117704520D03*
X145811700Y-117204140D03*
X145811700Y-116706300D03*
X145811700Y-116205920D03*
X145811700Y-115705540D03*
X145811700Y-115205160D03*
D26*
X145811700Y-114643820D03*
D28*
X137100000Y-88800000D03*
D29*
X135100000Y-86000000D03*
X135900000Y-86000000D03*
X136700000Y-86000000D03*
X137500000Y-86000000D03*
X138300000Y-86000000D03*
X139100000Y-86000000D03*
X139100000Y-91600000D03*
X138300000Y-91600000D03*
X137500000Y-91600000D03*
X136700000Y-91600000D03*
X135900000Y-91600000D03*
X135100000Y-91600000D03*
D28*
X143500000Y-88800000D03*
D29*
X141500000Y-86000000D03*
X142300000Y-86000000D03*
X143100000Y-86000000D03*
X143900000Y-86000000D03*
X144700000Y-86000000D03*
X145500000Y-86000000D03*
X145500000Y-91600000D03*
X144700000Y-91600000D03*
X143900000Y-91600000D03*
X143100000Y-91600000D03*
X142300000Y-91600000D03*
X141500000Y-91600000D03*
X148000000Y-91600000D03*
X148800000Y-91600000D03*
X149600000Y-91600000D03*
X150400000Y-91600000D03*
X151200000Y-91600000D03*
X152000000Y-91600000D03*
X152000000Y-86000000D03*
X151200000Y-86000000D03*
X150400000Y-86000000D03*
X149600000Y-86000000D03*
X148800000Y-86000000D03*
X148000000Y-86000000D03*
D28*
X150000000Y-88800000D03*
D29*
X154400000Y-91600000D03*
X155200000Y-91600000D03*
X156000000Y-91600000D03*
X156800000Y-91600000D03*
X157600000Y-91600000D03*
X158400000Y-91600000D03*
X158400000Y-86000000D03*
X157600000Y-86000000D03*
X156800000Y-86000000D03*
X156000000Y-86000000D03*
X155200000Y-86000000D03*
X154400000Y-86000000D03*
D28*
X156400000Y-88800000D03*
D29*
X160800000Y-91600000D03*
X161600000Y-91600000D03*
X162400000Y-91600000D03*
X163200000Y-91600000D03*
X164000000Y-91600000D03*
X164800000Y-91600000D03*
X164800000Y-86000000D03*
X164000000Y-86000000D03*
X163200000Y-86000000D03*
X162400000Y-86000000D03*
X161600000Y-86000000D03*
X160800000Y-86000000D03*
D28*
X162800000Y-88800000D03*
D29*
X167200000Y-91600000D03*
X168000000Y-91600000D03*
X168800000Y-91600000D03*
X169600000Y-91600000D03*
X170400000Y-91600000D03*
X171200000Y-91600000D03*
X171200000Y-86000000D03*
X170400000Y-86000000D03*
X169600000Y-86000000D03*
X168800000Y-86000000D03*
X168000000Y-86000000D03*
X167200000Y-86000000D03*
D28*
X169200000Y-88800000D03*
X175500000Y-88800000D03*
D29*
X173500000Y-86000000D03*
X174300000Y-86000000D03*
X175100000Y-86000000D03*
X175900000Y-86000000D03*
X176700000Y-86000000D03*
X177500000Y-86000000D03*
X177500000Y-91600000D03*
X176700000Y-91600000D03*
X175900000Y-91600000D03*
X175100000Y-91600000D03*
X174300000Y-91600000D03*
X173500000Y-91600000D03*
D28*
X181900000Y-88800000D03*
D29*
X179900000Y-86000000D03*
X180700000Y-86000000D03*
X181500000Y-86000000D03*
X182300000Y-86000000D03*
X183100000Y-86000000D03*
X183900000Y-86000000D03*
X183900000Y-91600000D03*
X183100000Y-91600000D03*
X182300000Y-91600000D03*
X181500000Y-91600000D03*
X180700000Y-91600000D03*
X179900000Y-91600000D03*
X186300000Y-91600000D03*
X187100000Y-91600000D03*
X187900000Y-91600000D03*
X188700000Y-91600000D03*
X189500000Y-91600000D03*
X190300000Y-91600000D03*
X190300000Y-86000000D03*
X189500000Y-86000000D03*
X188700000Y-86000000D03*
X187900000Y-86000000D03*
X187100000Y-86000000D03*
X186300000Y-86000000D03*
D28*
X188300000Y-88800000D03*
X194700000Y-88800000D03*
D29*
X192700000Y-86000000D03*
X193500000Y-86000000D03*
X194300000Y-86000000D03*
X195100000Y-86000000D03*
X195900000Y-86000000D03*
X196700000Y-86000000D03*
X196700000Y-91600000D03*
X195900000Y-91600000D03*
X195100000Y-91600000D03*
X194300000Y-91600000D03*
X193500000Y-91600000D03*
X192700000Y-91600000D03*
D22*
X179899509Y-133638266D03*
X179899509Y-134908266D03*
X179899509Y-136178266D03*
X179899509Y-137448266D03*
X174057509Y-137448266D03*
X174057509Y-136178266D03*
D23*
X174057509Y-134943266D03*
D22*
X174057509Y-133638266D03*
D30*
X131260000Y-130400000D03*
X136340000Y-130400000D03*
D16*
X158665300Y-51600000D03*
X155134700Y-51600000D03*
D31*
X153200000Y-54701400D03*
X153200000Y-57698600D03*
D32*
X156300000Y-54500000D03*
X156300000Y-57700000D03*
D11*
X158400000Y-55961800D03*
X158400000Y-57638200D03*
D12*
X202838200Y-76550000D03*
X201161800Y-76550000D03*
X201061800Y-79900000D03*
X202738200Y-79900000D03*
D33*
X202200000Y-88770000D03*
D34*
X199650000Y-82200000D03*
X200500000Y-82200000D03*
X201350000Y-82200000D03*
X203050000Y-82200000D03*
X203900000Y-82200000D03*
X204750000Y-82200000D03*
D11*
X137900000Y-94261800D03*
X137900000Y-95938200D03*
D35*
X138215000Y-98200000D03*
X135985000Y-98200000D03*
X142235000Y-98200000D03*
X144465000Y-98200000D03*
X148635000Y-98200000D03*
X150865000Y-98200000D03*
X157315000Y-98200000D03*
X155085000Y-98200000D03*
X161535000Y-98200000D03*
X163765000Y-98200000D03*
X170250000Y-98200000D03*
X168020000Y-98200000D03*
X176665000Y-98200000D03*
X174435000Y-98200000D03*
X183015000Y-98200000D03*
X180785000Y-98200000D03*
X187185000Y-98150000D03*
X189415000Y-98150000D03*
X193585000Y-98200000D03*
X195815000Y-98200000D03*
X200835000Y-78250000D03*
X203065000Y-78250000D03*
D12*
X201161800Y-74850000D03*
X202838200Y-74850000D03*
M02*
