  0
SECTION
  2
HEADER
  9
$ACADVER
  1
AC1009
  9
$INSBASE
 10
0.0
 20
0.0
 30
0.0
  9
$EXTMIN
 10
0.0
 20
0.0
 30
0.0
  9
$EXTMAX
 10
0.0
 20
0.0
 30
0.0
  0
ENDSEC
  0
SECTION
  2
TABLES
  0
TABLE
  2
VPORT
 70
0
  0
ENDTAB
  0
TABLE
  2
LTYPE
 70
1
  0
LTYPE
  2
CONTINUOUS
 70
0
  3
Solid line
 72
65
 73
0
 40
0.0
  0
ENDTAB
  0
TABLE
  2
LAYER
 70
1
  0
LAYER
  2
0
 70
64
 62
7
  6
continuous
  0
ENDTAB
  0
TABLE
  2
STYLE
 70
1
  0
STYLE
  2
STANDARD
 70
0
 40
0
 41
1.0
 50
0.0
 71
0
 42
1
 3
ARIAL.TTF
 4

  0
ENDTAB
  0
TABLE
  2
VIEW
 70
0
  0
ENDTAB
  0
ENDSEC
  0
SECTION
  2
BLOCKS
  0
BLOCK
  8
0
  2
REFINE
 70
0
 10
0.0
 20
0.0
 30
0.0
  3
REFINE
  0
LINE
  8
0
 62
0
 10
45.7594985518
 20
-48.0038867632
 30
0.0
 11
59.9759194987
 21
-16.416677396
 31
0.0
  0
ARC
  8
0
 62
0
 10
42.1119066019
 20
-46.3622190236
 30
0.0
 40
4.0
 50
-81.8207798917
 51
-24.2310286892
  0
LINE
  8
0
 62
0
 10
-45.7594985518
 20
-48.0038867632
 30
0.0
 11
-59.9759194987
 21
-16.416677396
 31
0.0
  0
ARC
  8
0
 62
0
 10
-42.1119066019
 20
-46.3622190236
 30
0.0
 40
4.0
 50
-155.768971311
 51
-98.1792201083
  0
LINE
  8
0
 62
0
 10
-45.7594985518
 20
48.0038867632
 30
0.0
 11
-59.9759194987
 21
16.416677396
 31
0.0
  0
ARC
  8
0
 62
0
 10
-42.1119066019
 20
46.3622190236
 30
0.0
 40
4.0
 50
98.1792201083
 51
155.768971311
  0
LINE
  8
0
 62
0
 10
45.7594985518
 20
48.0038867632
 30
0.0
 11
59.9759194987
 21
16.416677396
 31
0.0
  0
ARC
  8
0
 62
0
 10
42.1119066019
 20
46.3622190236
 30
0.0
 40
4.0
 50
24.2310286892
 51
81.8207798917
  0
ARC
  8
0
 62
0
 10
36.7
 20
-42.8276409823
 30
0.0
 40
2.5
 50
-82.9136531779
 51
0.0
  0
ARC
  8
0
 62
0
 10
36.7
 20
42.8276409823
 30
0.0
 40
2.5
 50
-0.0
 51
82.9136531779
  0
ARC
  8
0
 62
0
 10
-36.7
 20
42.8276409823
 30
0.0
 40
2.5
 50
97.0863468221
 51
-180.0
  0
ARC
  8
0
 62
0
 10
-36.7
 20
-42.8276409823
 30
0.0
 40
2.5
 50
180.0
 51
-97.0863468221
  0
CIRCLE
  8
0
 62
0
 10
45.0
 20
-40.0
 30
0.0
 40
1.6
  0
CIRCLE
  8
0
 62
0
 10
45.0
 20
40.0
 30
0.0
 40
1.6
  0
CIRCLE
  8
0
 62
0
 10
-45.0
 20
40.0
 30
0.0
 40
1.6
  0
CIRCLE
  8
0
 62
0
 10
-45.0
 20
-40.0
 30
0.0
 40
1.6
  0
ARC
  8
0
 62
0
 10
23.5
 20
0.0
 30
0.0
 40
40.0
 50
-24.2310286892
 51
-0.0
  0
ARC
  8
0
 62
0
 10
23.5
 20
0.0
 30
0.0
 40
40.0
 50
0.0
 51
24.2310286892
  0
ARC
  8
0
 62
0
 10
0.0
 20
-246.626837636
 30
0.0
 40
300.0
 50
81.8207798917
 51
90.0
  0
ARC
  8
0
 62
0
 10
5.45401141219e-14
 20
-246.626837636
 30
0.0
 40
300.0
 50
90.0
 51
98.1792201083
  0
ARC
  8
0
 62
0
 10
-23.5
 20
-5.21804821574e-15
 30
0.0
 40
40.0
 50
155.768971311
 51
180.0
  0
ARC
  8
0
 62
0
 10
-23.5
 20
5.21804821574e-15
 30
0.0
 40
40.0
 50
-180.0
 51
-155.768971311
  0
ARC
  8
0
 62
0
 10
5.45401141219e-14
 20
246.626837636
 30
0.0
 40
300.0
 50
-98.1792201083
 51
-90.0
  0
ARC
  8
0
 62
0
 10
0.0
 20
246.626837636
 30
0.0
 40
300.0
 50
-90.0
 51
-81.8207798917
  0
ARC
  8
0
 62
0
 10
5.58220136782e-14
 20
252.4
 30
0.0
 40
300.0
 50
-90.0
 51
-82.9138629073
  0
ARC
  8
0
 62
0
 10
0.0
 20
252.4
 30
0.0
 40
300.0
 50
-97.0861370927
 51
-90.0
  0
LINE
  8
0
 62
0
 10
-39.2
 20
-42.8276409584
 30
0.0
 11
-39.2
 21
42.8276409584
 31
0.0
  0
ARC
  8
0
 62
0
 10
0.0
 20
-252.4
 30
0.0
 40
300.0
 50
90.0
 51
97.0861370927
  0
ARC
  8
0
 62
0
 10
-5.6266102888e-14
 20
-252.4
 30
0.0
 40
300.0
 50
82.9138629073
 51
90.0
  0
LINE
  8
0
 62
0
 10
39.2
 20
42.8276409584
 30
0.0
 11
39.2
 21
-42.8276409584
 31
0.0
  0
ARC
  8
0
 62
0
 10
54.5
 20
0.0
 30
0.0
 40
3.6
 50
180.0
 51
-0.0
  0
ARC
  8
0
 62
0
 10
54.5
 20
0.0
 30
0.0
 40
3.6
 50
0.0
 51
-180.0
  0
ARC
  8
0
 62
0
 10
-54.5
 20
-1.21014309684e-14
 30
0.0
 40
3.6
 50
0.0
 51
180.0
  0
ARC
  8
0
 62
0
 10
-54.5
 20
1.21014309684e-14
 30
0.0
 40
3.6
 50
-180.0
 51
-0.0
  0
ENDBLK
  0
ENDSEC
  0
SECTION
  2
ENTITIES
  0
INSERT
  2
REFINE
  8
0
 62
0
 10
0.0
 20
0.0
 30
0.0
  0
ENDSEC
  0
EOF
