  0
SECTION
  2
HEADER
  9
$ACADVER
  1
AC1009
  9
$INSBASE
 10
0.0
 20
0.0
 30
0.0
  9
$EXTMIN
 10
0.0
 20
0.0
 30
0.0
  9
$EXTMAX
 10
0.0
 20
0.0
 30
0.0
  0
ENDSEC
  0
SECTION
  2
TABLES
  0
TABLE
  2
VPORT
 70
0
  0
ENDTAB
  0
TABLE
  2
LTYPE
 70
1
  0
LTYPE
  2
CONTINUOUS
 70
0
  3
Solid line
 72
65
 73
0
 40
0.0
  0
ENDTAB
  0
TABLE
  2
LAYER
 70
1
  0
LAYER
  2
0
 70
64
 62
7
  6
continuous
  0
ENDTAB
  0
TABLE
  2
STYLE
 70
1
  0
STYLE
  2
STANDARD
 70
0
 40
0
 41
1.0
 50
0.0
 71
0
 42
1
 3
ARIAL.TTF
 4

  0
ENDTAB
  0
TABLE
  2
VIEW
 70
0
  0
ENDTAB
  0
ENDSEC
  0
SECTION
  2
BLOCKS
  0
BLOCK
  8
0
  2
PCB
 70
0
 10
0.0
 20
0.0
 30
0.0
  3
PCB
  0
LINE
  8
0
 62
0
 10
-37.0
 20
45.000058
 30
0.0
 11
37.0
 21
45.000058
 31
0.0
  0
ARC
  8
0
 62
0
 10
-37.0
 20
43.000058
 30
0.0
 40
2.0
 50
90.0
 51
-180.0
  0
ARC
  8
0
 62
0
 10
37.0
 20
43.000058
 30
0.0
 40
2.0
 50
-0.0
 51
90.0
  0
LINE
  8
0
 62
0
 10
-39.0
 20
-43.000174
 30
0.0
 11
-39.0
 21
43.000058
 31
0.0
  0
LINE
  8
0
 62
0
 10
39.0
 20
43.000058
 30
0.0
 11
39.0
 21
-42.999942
 31
0.0
  0
ARC
  8
0
 62
0
 10
-37.0001980105
 20
-43.0002560186
 30
0.0
 40
1.99980199116
 50
179.997650106
 51
-89.9943268547
  0
ARC
  8
0
 62
0
 10
37.0
 20
-42.999942
 30
0.0
 40
2.0
 50
-90.0
 51
0.0
  0
LINE
  8
0
 62
0
 10
37.0
 20
-44.999942
 30
0.0
 11
-37.0
 21
-45.000058
 31
0.0
  0
CIRCLE
  8
0
 62
0
 10
7.99846
 20
29.000058
 30
0.0
 40
0.87376
  0
CIRCLE
  8
0
 62
0
 10
5.99948
 20
32.998018
 30
0.0
 40
0.87376
  0
CIRCLE
  8
0
 62
0
 10
3.99796
 20
29.000058
 30
0.0
 40
0.87376
  0
CIRCLE
  8
0
 62
0
 10
-1.99898
 20
32.998018
 30
0.0
 40
0.87376
  0
CIRCLE
  8
0
 62
0
 10
0.0
 20
29.000058
 30
0.0
 40
0.87376
  0
CIRCLE
  8
0
 62
0
 10
1.99898
 20
32.998018
 30
0.0
 40
0.87376
  0
CIRCLE
  8
0
 62
0
 10
-13.99794
 20
32.998018
 30
0.0
 40
0.87376
  0
CIRCLE
  8
0
 62
0
 10
-11.99896
 20
29.000058
 30
0.0
 40
0.87376
  0
CIRCLE
  8
0
 62
0
 10
-9.99998
 20
32.998018
 30
0.0
 40
0.87376
  0
CIRCLE
  8
0
 62
0
 10
-3.99796
 20
29.000058
 30
0.0
 40
0.87376
  0
CIRCLE
  8
0
 62
0
 10
-5.99948
 20
32.998018
 30
0.0
 40
0.87376
  0
CIRCLE
  8
0
 62
0
 10
-7.99846
 20
29.000058
 30
0.0
 40
0.87376
  0
CIRCLE
  8
0
 62
0
 10
-9.99998
 20
25.002098
 30
0.0
 40
0.87376
  0
CIRCLE
  8
0
 62
0
 10
-5.99948
 20
25.002098
 30
0.0
 40
0.87376
  0
CIRCLE
  8
0
 62
0
 10
5.99948
 20
25.002098
 30
0.0
 40
0.87376
  0
CIRCLE
  8
0
 62
0
 10
-1.99898
 20
25.002098
 30
0.0
 40
0.87376
  0
CIRCLE
  8
0
 62
0
 10
1.99898
 20
25.002098
 30
0.0
 40
0.87376
  0
CIRCLE
  8
0
 62
0
 10
-13.99794
 20
25.002098
 30
0.0
 40
0.87376
  0
CIRCLE
  8
0
 62
0
 10
13.99794
 20
25.002098
 30
0.0
 40
0.87376
  0
CIRCLE
  8
0
 62
0
 10
11.99896
 20
29.000058
 30
0.0
 40
0.87376
  0
CIRCLE
  8
0
 62
0
 10
9.99998
 20
25.002098
 30
0.0
 40
0.87376
  0
CIRCLE
  8
0
 62
0
 10
9.99998
 20
32.998018
 30
0.0
 40
0.87376
  0
CIRCLE
  8
0
 62
0
 10
13.99794
 20
32.998018
 30
0.0
 40
0.87376
  0
CIRCLE
  8
0
 62
0
 10
0.0
 20
-32.997902
 30
0.0
 40
0.87376
  0
CIRCLE
  8
0
 62
0
 10
0.0
 20
-25.001982
 30
0.0
 40
0.87376
  0
CIRCLE
  8
0
 62
0
 10
-1.99898
 20
-28.999942
 30
0.0
 40
0.87376
  0
CIRCLE
  8
0
 62
0
 10
-3.99796
 20
-25.001982
 30
0.0
 40
0.87376
  0
CIRCLE
  8
0
 62
0
 10
-3.99796
 20
-32.997902
 30
0.0
 40
0.87376
  0
CIRCLE
  8
0
 62
0
 10
3.99796
 20
-25.001982
 30
0.0
 40
0.87376
  0
CIRCLE
  8
0
 62
0
 10
3.99796
 20
-32.997902
 30
0.0
 40
0.87376
  0
CIRCLE
  8
0
 62
0
 10
1.99898
 20
-28.999942
 30
0.0
 40
0.87376
  0
CIRCLE
  8
0
 62
0
 10
13.69822
 20
-18.202402
 30
0.0
 40
0.99949
  0
CIRCLE
  8
0
 62
0
 10
-13.69822
 20
-18.202402
 30
0.0
 40
0.99949
  0
CIRCLE
  8
0
 62
0
 10
-23.6982
 20
39.797598
 30
0.0
 40
0.99949
  0
CIRCLE
  8
0
 62
0
 10
-25.19934
 20
21.700098
 30
0.0
 40
0.99949
  0
CIRCLE
  8
0
 62
0
 10
25.19934
 20
21.700098
 30
0.0
 40
0.99949
  0
CIRCLE
  8
0
 62
0
 10
23.6982
 20
39.797598
 30
0.0
 40
0.99949
  0
CIRCLE
  8
0
 62
0
 10
15.19936
 20
-36.299902
 30
0.0
 40
0.99949
  0
CIRCLE
  8
0
 62
0
 10
-15.19936
 20
-36.299902
 30
0.0
 40
0.99949
  0
ENDBLK
  0
ENDSEC
  0
SECTION
  2
ENTITIES
  0
INSERT
  2
PCB
  8
0
 62
0
 10
0.0
 20
0.0
 30
0.0
  0
ENDSEC
  0
EOF
