M48
;DRILL file {KiCad (5.0.0-rc2-dev-130-g0bdae22af-dirty)} date Thu Jan 24 11:38:00 2019
;FORMAT={-:-/ absolute / inch / decimal}
FMAT,2
INCH,TZ
T1C0.0157
T2C0.0688
T3C0.0787
%
G90
G05
M72
T1
X5.1181Y-2.126
X5.1181Y-2.4488
X5.1181Y-2.7087
X5.1299Y-4.5827
X5.1339Y-2.8031
X5.1339Y-4.122
X5.1575Y-5.0276
X5.1969Y-4.7126
X5.2047Y-4.6732
X5.2087Y-4.2047
X5.2108Y-4.5854
X5.2126Y-3.3189
X5.2323Y-4.378
X5.2402Y-1.9685
X5.2559Y-3.1575
X5.2677Y-5.2402
X5.293Y-3.6398
X5.2992Y-4.3465
X5.3071Y-3.815
X5.3071Y-4.3898
X5.311Y-5.0157
X5.315Y-5.3898
X5.3189Y-2.748
X5.3228Y-3.6654
X5.3504Y-4.6457
X5.3543Y-2.5276
X5.3622Y-2.7953
X5.3622Y-4.374
X5.3701Y-4.7756
X5.374Y-3.6693
X5.374Y-4.5039
X5.4094Y-3.8307
X5.4213Y-4.4921
X5.4252Y-4.6102
X5.4606Y-4.7126
X5.4686Y-4.2877
X5.4764Y-4.4921
X5.4843Y-4.5709
X5.4882Y-3.2244
X5.4921Y-4.6732
X5.496Y-4.2043
X5.5236Y-4.6417
X5.5266Y-4.2377
X5.5315Y-4.4961
X5.5354Y-3.6614
X5.5394Y-4.9803
X5.5472Y-5.0394
X5.5591Y-3.0669
X5.5591Y-3.811
X5.563Y-4.803
X5.5666Y-4.3503
X5.5669Y-2.5866
X5.5669Y-4.5354
X5.5734Y-4.305
X5.5827Y-3.6607
X5.5969Y-4.838
X5.6063Y-5.2165
X5.6102Y-4.5039
X5.6102Y-4.7165
X5.6102Y-4.9843
X5.622Y-4.3622
X5.624Y-3.8268
X5.6299Y-3.6575
X5.6417Y-4.7992
X5.6496Y-2.2441
X5.6496Y-4.689
X5.6693Y-4.3543
X5.6693Y-4.4921
X5.6693Y-5.3189
X5.689Y-1.9685
X5.689Y-4.3071
X5.7087Y-4.9409
X5.7126Y-4.4449
X5.7244Y-2.7913
X5.7402Y-5.315
X5.7441Y-3.2205
X5.7835Y-5.2953
X5.7921Y-3.6569
X5.7957Y-4.6963
X5.7992Y-5.185
X5.8031Y-4.4724
X5.8071Y-3.0866
X5.8071Y-3.811
X5.8109Y-4.7951
X5.8268Y-5.3031
X5.8307Y-3.6646
X5.8461Y-4.815
X5.8465Y-4.4606
X5.8799Y-3.8268
X5.8858Y-4.4488
X5.8898Y-3.6654
X5.9016Y-4.7008
X5.9055Y-2.2559
X5.9591Y-4.5747
X5.9764Y-2.5236
X5.9961Y-3.2244
X6.Y-5.0039
X6.0276Y-5.4016
X6.0433Y-3.0906
X6.0591Y-3.6575
X6.0591Y-3.815
X6.063Y-1.9685
X6.0866Y-4.9449
X6.1063Y-3.6674
X6.126Y-3.0512
X6.126Y-3.0984
X6.126Y-3.1417
X6.1398Y-3.8307
X6.1484Y-3.6654
X6.1535Y-2.0984
X6.1772Y-5.2913
X6.189Y-3.0512
X6.189Y-3.0984
X6.189Y-3.1417
X6.2362Y-5.3425
X6.248Y-3.2244
X6.2677Y-5.3898
X6.2874Y-3.0827
X6.3071Y-3.6575
X6.311Y-2.1693
X6.311Y-3.815
X6.3499Y-3.6732
X6.3504Y-5.1299
X6.378Y-3.0512
X6.378Y-3.0945
X6.378Y-3.1378
X6.3937Y-3.6685
X6.437Y-3.8262
X6.4409Y-3.0512
X6.4409Y-3.0945
X6.4409Y-3.1378
X6.4724Y-1.9646
X6.5Y-3.2244
X6.5118Y-5.2165
X6.5394Y-3.0984
X6.5543Y-3.655
X6.563Y-3.815
X6.5964Y-3.6753
X6.6457Y-3.6685
X6.7008Y-3.8209
X6.7008Y-5.311
X6.748Y-3.2244
X6.7559Y-5.1142
X6.7835Y-2.1142
X6.7913Y-3.0709
X6.8071Y-3.6614
X6.815Y-3.815
X6.8512Y-3.674
X6.8937Y-3.6614
X6.9252Y-5.4173
X6.9429Y-3.8228
X6.9488Y-5.0118
X6.9843Y-1.9724
X6.9921Y-2.7992
X6.9961Y-3.2244
X7.0315Y-3.0709
X7.0512Y-3.6614
X7.0669Y-3.811
X7.0945Y-3.6607
X7.1378Y-3.8228
X7.1457Y-3.6614
X7.1969Y-5.3701
X7.2205Y-4.7441
X7.248Y-2.6457
X7.252Y-3.2244
X7.2559Y-2.8346
X7.2677Y-3.0906
X7.2913Y-2.3622
X7.311Y-3.6575
X7.315Y-2.1142
X7.3189Y-3.815
X7.3268Y-5.2441
X7.3543Y-3.6614
X7.3976Y-3.6614
X7.4449Y-5.3661
X7.4606Y-3.8189
X7.4646Y-4.6811
X7.4843Y-4.878
X7.5Y-1.9685
X7.5039Y-3.2283
X7.5197Y-3.0906
X7.5512Y-3.6496
X7.5709Y-3.811
X7.5787Y-5.0157
X7.6063Y-3.6614
X7.6299Y-2.3346
X7.6496Y-3.6575
X7.6693Y-3.8248
X7.6969Y-5.4409
X7.7323Y-4.5433
X7.748Y-2.8031
X7.7559Y-3.1024
X7.8937Y-3.3031
X7.9233Y-3.1795
X7.9323Y-3.0447
X7.9449Y-1.9646
X8.0201Y-3.168
X8.0276Y-3.3031
X8.0945Y-5.4094
X8.1063Y-2.4764
X8.1063Y-5.0315
X8.1102Y-2.1496
X8.1102Y-2.811
X8.1102Y-4.1575
X8.1102Y-4.6063
T2
X6.0631Y-2.4017
X6.0631Y-2.7165
X6.1418Y-2.5591
X6.2205Y-2.4017
X6.2205Y-2.7165
X6.2993Y-2.5591
X6.378Y-2.4017
X6.378Y-2.7165
X6.4568Y-2.5591
X6.5355Y-2.4017
X6.5355Y-2.7165
X6.6142Y-2.5591
X6.6929Y-2.4017
X6.6929Y-2.7165
X6.7716Y-2.5591
X6.8504Y-2.4017
X6.8504Y-2.7165
X6.9291Y-2.5591
X7.0079Y-2.4017
X7.0079Y-2.7165
X7.0866Y-2.5591
X7.1653Y-2.4017
X7.1653Y-2.7165
X6.4568Y-4.6851
X6.4568Y-4.9999
X6.5355Y-4.8425
X6.6142Y-4.6851
X6.6142Y-4.9999
X6.6929Y-4.8425
X6.7716Y-4.6851
X6.7716Y-4.9999
T3
X5.6221Y-2.8465
X5.6812Y-2.134
X7.5472Y-2.134
X7.6063Y-2.8465
X6.0158Y-5.1299
X6.0749Y-4.4174
X7.1535Y-4.4174
X7.2126Y-5.1299
T0
M30
