G04 #@! TF.GenerationSoftware,KiCad,Pcbnew,(5.0.0-rc2-dev-130-g0bdae22af-dirty)*
G04 #@! TF.CreationDate,2018-10-04T20:29:58+03:00*
G04 #@! TF.ProjectId,hcu,6863752E6B696361645F706362000000,rev?*
G04 #@! TF.SameCoordinates,Original*
G04 #@! TF.FileFunction,Copper,L2,Bot,Signal*
G04 #@! TF.FilePolarity,Positive*
%FSLAX46Y46*%
G04 Gerber Fmt 4.6, Leading zero omitted, Abs format (unit mm)*
G04 Created by KiCad (PCBNEW (5.0.0-rc2-dev-130-g0bdae22af-dirty)) date Thu Oct  4 20:29:58 2018*
%MOMM*%
%LPD*%
G01*
G04 APERTURE LIST*
%ADD10R,2.623820X2.623820*%
%ADD11C,2.623820*%
%ADD12C,2.999740*%
%ADD13C,0.800000*%
%ADD14C,0.400000*%
%ADD15C,0.200000*%
%ADD16C,1.000000*%
%ADD17C,0.800000*%
G04 APERTURE END LIST*
D10*
X164002040Y-119002040D03*
D11*
X168000000Y-119002040D03*
X171997960Y-119002040D03*
X166001020Y-123000000D03*
X169998980Y-123000000D03*
X164002040Y-126997960D03*
X168000000Y-126997960D03*
X171997960Y-126997960D03*
D12*
X154301780Y-112202460D03*
X181698220Y-112202460D03*
X183199360Y-130299960D03*
X152800640Y-130299960D03*
D10*
X154002060Y-61002040D03*
D11*
X158000020Y-61002040D03*
X162000520Y-61002040D03*
X166001020Y-61002040D03*
X169998980Y-61002040D03*
X173999480Y-61002040D03*
X177999980Y-61002040D03*
X181997940Y-61002040D03*
X156001040Y-65000000D03*
X160001540Y-65000000D03*
X164002040Y-65000000D03*
X168000000Y-65000000D03*
X171997960Y-65000000D03*
X175998460Y-65000000D03*
X179998960Y-65000000D03*
X154002060Y-68997960D03*
X158000020Y-68997960D03*
X162000520Y-68997960D03*
X166001020Y-68997960D03*
X169998980Y-68997960D03*
X173999480Y-68997960D03*
X177999980Y-68997960D03*
X181997940Y-68997960D03*
D12*
X144301800Y-54202460D03*
X191698200Y-54202460D03*
X142800660Y-72299960D03*
X193199340Y-72299960D03*
D13*
X201481104Y-77335828D03*
X152400000Y-127100000D03*
X132300000Y-106800000D03*
X135900000Y-118000000D03*
X141400000Y-115200000D03*
X138700000Y-119700000D03*
X131000000Y-127700000D03*
X134900000Y-127400000D03*
X135000000Y-136900000D03*
X144000000Y-135100000D03*
X153100000Y-137200000D03*
X147300000Y-131700000D03*
X145000000Y-125500000D03*
X154600000Y-125600000D03*
X170200000Y-134900000D03*
X175900000Y-137600000D03*
X195500000Y-138200000D03*
X205600000Y-137400000D03*
X205900000Y-127800000D03*
X192500000Y-127400000D03*
X186100000Y-133200000D03*
X176500000Y-127300000D03*
X183400000Y-120500000D03*
X189600000Y-118900000D03*
X196400000Y-115400000D03*
X206000000Y-117000000D03*
X206000000Y-105600000D03*
X132400000Y-84300000D03*
X141200000Y-77900000D03*
X159700000Y-78300000D03*
X153500000Y-78500000D03*
X147500000Y-78400000D03*
X166100000Y-78700000D03*
X172500000Y-78000000D03*
X178600000Y-78000000D03*
X177600000Y-71100000D03*
X191000000Y-78500000D03*
X184600000Y-78500000D03*
X184300000Y-72000000D03*
X184100000Y-67200000D03*
X185200000Y-60000000D03*
X196800000Y-71200000D03*
X205900000Y-62900000D03*
X206000000Y-71400000D03*
X193800000Y-59300000D03*
X206000000Y-54600000D03*
X201800000Y-49900000D03*
X190500000Y-50000000D03*
X185800000Y-53700000D03*
X177400000Y-50100000D03*
X172300000Y-53700000D03*
X164400000Y-49900000D03*
X160300000Y-55100000D03*
X151800000Y-64100000D03*
X145400000Y-70900000D03*
X136200000Y-71000000D03*
X141400000Y-65700000D03*
X150000000Y-57300000D03*
X143500000Y-57000000D03*
X136000000Y-64200000D03*
X130000000Y-68800000D03*
X130000000Y-62200000D03*
X130000000Y-54000000D03*
X133100000Y-50000000D03*
X144500000Y-50000000D03*
X154000000Y-50000000D03*
X136200000Y-111100000D03*
X143500000Y-119100990D03*
X191800218Y-92700989D03*
X147500000Y-96800000D03*
X130400000Y-104700000D03*
X139500000Y-118700000D03*
X140300000Y-117900000D03*
X132900000Y-111200000D03*
X138901989Y-108907483D03*
X140375341Y-107638736D03*
X145100000Y-112900000D03*
X167547535Y-93352633D03*
X151361978Y-116197032D03*
X141300000Y-121997032D03*
X142500000Y-119800000D03*
X193200000Y-93000000D03*
X166478954Y-92836860D03*
X147120556Y-92884041D03*
X134441494Y-92449852D03*
X156300000Y-53300000D03*
X203900000Y-83900000D03*
X200500000Y-83900000D03*
X197000000Y-78800000D03*
X190600000Y-82000000D03*
X184200000Y-81900000D03*
X177700000Y-81900000D03*
X171400000Y-81900000D03*
X165100000Y-81900000D03*
X158700000Y-81900000D03*
X133500000Y-80200000D03*
X139400000Y-81900000D03*
X145900000Y-81800000D03*
X152300000Y-81900000D03*
X171600000Y-129900000D03*
X192300000Y-96800000D03*
X185700000Y-92900000D03*
X185900000Y-96900000D03*
X179100000Y-93000000D03*
X179500000Y-96800000D03*
X172900000Y-93000000D03*
X173100000Y-96900000D03*
X166700000Y-96900000D03*
X160200000Y-92900000D03*
X160300000Y-96901228D03*
X153900000Y-92900000D03*
X153900000Y-96901228D03*
X140600000Y-93000000D03*
X141200000Y-96800000D03*
X134800000Y-96901228D03*
X132354952Y-116469872D03*
X130300000Y-116400000D03*
X132000000Y-119700000D03*
X149900000Y-119400000D03*
X142400000Y-132500000D03*
X156900000Y-134400000D03*
X140700000Y-126500000D03*
X133800000Y-133100000D03*
X148000000Y-134700000D03*
X161300000Y-130300000D03*
X165400000Y-132500000D03*
X182800000Y-136400000D03*
X189100000Y-136300000D03*
X190100000Y-123900000D03*
X130400000Y-71200000D03*
X142500000Y-126600000D03*
X140900000Y-128000000D03*
X145800000Y-135000000D03*
X146900000Y-134500000D03*
X158400000Y-135700000D03*
X159200000Y-136900000D03*
X157200000Y-79800000D03*
X157200000Y-78700000D03*
X157200000Y-77500000D03*
X155600000Y-79800000D03*
X155600000Y-78700000D03*
X155600000Y-77500000D03*
X163600000Y-78600000D03*
X163600000Y-79700000D03*
X163600000Y-77500000D03*
X162000000Y-79700000D03*
X162000000Y-78600000D03*
X162000000Y-77500000D03*
X136500000Y-93200000D03*
X134600000Y-110400000D03*
X135200000Y-93100000D03*
X143000000Y-92900000D03*
X141800000Y-92980800D03*
X137700000Y-114100000D03*
X149600000Y-93100000D03*
X139100000Y-114100000D03*
X148100000Y-93080800D03*
X156169900Y-93100000D03*
X140500000Y-114200000D03*
X141391021Y-110497063D03*
X155100000Y-93150700D03*
X162400000Y-93180800D03*
X144000000Y-110600000D03*
X161287327Y-93299062D03*
X144500000Y-109400000D03*
X168800000Y-93180800D03*
X144000000Y-114100000D03*
X175100000Y-93000000D03*
X148500000Y-113300000D03*
X174020698Y-93319593D03*
X147400000Y-113600000D03*
X181500000Y-93000000D03*
X147210500Y-119285084D03*
X180200000Y-92980800D03*
X148490316Y-122301979D03*
X187900000Y-93000000D03*
X147598061Y-121796080D03*
X186800000Y-93000000D03*
X194300000Y-92900000D03*
X135100000Y-69800000D03*
X132200000Y-118700000D03*
X137400000Y-97300000D03*
X134800000Y-111500000D03*
X142850006Y-97200000D03*
X136500000Y-114400000D03*
X149350000Y-97200000D03*
X139598118Y-106789095D03*
X155950000Y-97300000D03*
X141564651Y-109346799D03*
X163500000Y-97185986D03*
X142800000Y-110800000D03*
X170200000Y-97050000D03*
X142500000Y-114400000D03*
X176350000Y-97100000D03*
X149500000Y-113000000D03*
X136400000Y-121300000D03*
X181300000Y-97100000D03*
X189500000Y-97000000D03*
X143298012Y-121900000D03*
X194800000Y-97150002D03*
X142161738Y-122884603D03*
X203710059Y-80468335D03*
X137800000Y-117100000D03*
X139300000Y-116100000D03*
X201251675Y-80759775D03*
D14*
X130400000Y-98300000D02*
X130400000Y-104700000D01*
D15*
X139900000Y-122764286D02*
X139900000Y-119665685D01*
X145800000Y-128664286D02*
X139900000Y-122764286D01*
X139900000Y-119665685D02*
X139500000Y-119265685D01*
X145800000Y-135000000D02*
X145800000Y-128664286D01*
X139500000Y-119265685D02*
X139500000Y-118700000D01*
X140300000Y-122600000D02*
X140300000Y-118465685D01*
X146200000Y-128500000D02*
X140300000Y-122600000D01*
X146200000Y-133800000D02*
X146200000Y-128500000D01*
X146900000Y-134500000D02*
X146200000Y-133800000D01*
X140300000Y-118465685D02*
X140300000Y-117900000D01*
D14*
X158400000Y-135700000D02*
X159300000Y-135700000D01*
X159300000Y-135700000D02*
X166001020Y-128998980D01*
X166001020Y-128998980D02*
X166001020Y-123000000D01*
X159200000Y-136900000D02*
X167000000Y-129100000D01*
X167000000Y-129100000D02*
X168900000Y-129100000D01*
X168900000Y-129100000D02*
X169998980Y-128001020D01*
X169998980Y-128001020D02*
X169998980Y-123000000D01*
D15*
X134600000Y-100135714D02*
X136500000Y-98235714D01*
X136500000Y-93765685D02*
X136500000Y-93200000D01*
X136500000Y-98235714D02*
X136500000Y-93765685D01*
X134600000Y-110400000D02*
X134600000Y-100135714D01*
X133299999Y-110800001D02*
X132900000Y-111200000D01*
X135200000Y-93100000D02*
X135599999Y-93499999D01*
X135599999Y-93499999D02*
X135599999Y-98571429D01*
X135599999Y-98571429D02*
X133299999Y-100871429D01*
X133299999Y-100871429D02*
X133299999Y-110800001D01*
X144197025Y-94097025D02*
X144197025Y-98402975D01*
X143000000Y-92900000D02*
X144197025Y-94097025D01*
X144197025Y-98402975D02*
X138600000Y-104000000D01*
X138901989Y-108101989D02*
X138901989Y-108341798D01*
X138901989Y-108341798D02*
X138901989Y-108907483D01*
X138600000Y-104000000D02*
X138600000Y-107800000D01*
X138600000Y-107800000D02*
X138901989Y-108101989D01*
X138200989Y-113599011D02*
X138200989Y-103832547D01*
X143798014Y-94978814D02*
X142199999Y-93380799D01*
X138200989Y-103832547D02*
X143798014Y-98235522D01*
X143798014Y-98235522D02*
X143798014Y-94978814D01*
X142199999Y-93380799D02*
X141800000Y-92980800D01*
X137700000Y-114100000D02*
X138200989Y-113599011D01*
X139100000Y-110328572D02*
X150697025Y-98731547D01*
X150697025Y-98731547D02*
X150697025Y-94197025D01*
X139100000Y-114100000D02*
X139100000Y-110328572D01*
X149999999Y-93499999D02*
X149600000Y-93100000D01*
X150697025Y-94197025D02*
X149999999Y-93499999D01*
X141044804Y-107638736D02*
X140941026Y-107638736D01*
X140941026Y-107638736D02*
X140375341Y-107638736D01*
X150298018Y-98385522D02*
X141044804Y-107638736D01*
X150298018Y-95278818D02*
X150298018Y-98385522D01*
X148100000Y-93080800D02*
X150298018Y-95278818D01*
X157097025Y-94027125D02*
X156569899Y-93499999D01*
X145400000Y-108700000D02*
X154500000Y-99600000D01*
X140500000Y-114200000D02*
X142100999Y-112599001D01*
X143865478Y-108700000D02*
X145400000Y-108700000D01*
X156569899Y-93499999D02*
X156169900Y-93100000D01*
X142100999Y-110464479D02*
X143865478Y-108700000D01*
X154500000Y-99600000D02*
X156197822Y-99600000D01*
X142100999Y-112599001D02*
X142100999Y-110464479D01*
X157097025Y-98700797D02*
X157097025Y-94027125D01*
X156197822Y-99600000D02*
X157097025Y-98700797D01*
X156698022Y-98535514D02*
X156033536Y-99200000D01*
X141791020Y-110097064D02*
X141391021Y-110497063D01*
X155100000Y-93150700D02*
X156698022Y-94748722D01*
X156033536Y-99200000D02*
X152700000Y-99200000D01*
X152700000Y-99200000D02*
X141802936Y-110097064D01*
X156698022Y-94748722D02*
X156698022Y-98535514D01*
X141802936Y-110097064D02*
X141791020Y-110097064D01*
X162400000Y-93746485D02*
X162400000Y-93180800D01*
X144735714Y-110600000D02*
X154234725Y-101100989D01*
X154234725Y-101100989D02*
X157834725Y-101100989D01*
X162400000Y-96535714D02*
X162400000Y-93746485D01*
X144000000Y-110600000D02*
X144735714Y-110600000D01*
X157834725Y-101100989D02*
X162400000Y-96535714D01*
X157669450Y-100701978D02*
X162000000Y-96371428D01*
X153998022Y-100701978D02*
X157669450Y-100701978D01*
X145300000Y-109400000D02*
X153998022Y-100701978D01*
X144500000Y-109400000D02*
X145300000Y-109400000D01*
X162000000Y-96371428D02*
X162000000Y-94577420D01*
X162000000Y-94577420D02*
X161287327Y-93864747D01*
X161287327Y-93864747D02*
X161287327Y-93299062D01*
X145064286Y-114100000D02*
X155365275Y-103799011D01*
X159400991Y-103799009D02*
X165800000Y-97400000D01*
X168400001Y-93580799D02*
X168800000Y-93180800D01*
X144000000Y-114100000D02*
X145064286Y-114100000D01*
X165800000Y-97400000D02*
X165800000Y-96180800D01*
X155365275Y-103799011D02*
X159400991Y-103799009D01*
X165800000Y-96180800D02*
X168400001Y-93580799D01*
X159200000Y-103400000D02*
X155200000Y-103400000D01*
X165400000Y-97200000D02*
X159200000Y-103400000D01*
X165400000Y-95500168D02*
X165400000Y-97200000D01*
X167547535Y-93352633D02*
X165400000Y-95500168D01*
X145700000Y-112900000D02*
X145100000Y-112900000D01*
X155200000Y-103400000D02*
X145700000Y-112900000D01*
X175100000Y-97035714D02*
X175100000Y-93565685D01*
X159933736Y-105001978D02*
X165234725Y-99700989D01*
X155933736Y-105001978D02*
X159933736Y-105001978D01*
X148500000Y-112435714D02*
X155933736Y-105001978D01*
X175100000Y-93565685D02*
X175100000Y-93000000D01*
X148500000Y-113300000D02*
X148500000Y-112435714D01*
X165234725Y-99700989D02*
X172434726Y-99700988D01*
X172434726Y-99700988D02*
X175100000Y-97035714D01*
X147400000Y-113600000D02*
X147400000Y-112971428D01*
X155768461Y-104602967D02*
X159768462Y-104602966D01*
X147400000Y-112971428D02*
X155768461Y-104602967D01*
X174020698Y-93885278D02*
X174020698Y-93319593D01*
X172269450Y-99301978D02*
X174020698Y-97550730D01*
X159768462Y-104602966D02*
X165069450Y-99301978D01*
X174020698Y-97550730D02*
X174020698Y-93885278D01*
X165069450Y-99301978D02*
X172269450Y-99301978D01*
X182499010Y-94699010D02*
X182499010Y-98065276D01*
X182499010Y-98065276D02*
X176064286Y-104500000D01*
X181500000Y-93700000D02*
X182499010Y-94699010D01*
X151900000Y-115600000D02*
X151361978Y-116138022D01*
X181500000Y-93000000D02*
X181500000Y-93700000D01*
X176064286Y-104500000D02*
X167000000Y-104500000D01*
X167000000Y-104500000D02*
X155900000Y-115600000D01*
X155900000Y-115600000D02*
X151900000Y-115600000D01*
X151361978Y-116138022D02*
X151361978Y-116197032D01*
X175899011Y-104100989D02*
X166834724Y-104100990D01*
X182100000Y-94880800D02*
X182100000Y-97900000D01*
X182100000Y-97900000D02*
X175899011Y-104100989D01*
X147610499Y-117689501D02*
X147610499Y-118885085D01*
X180200000Y-92980800D02*
X182100000Y-94880800D01*
X166834724Y-104100990D02*
X155734723Y-115200991D01*
X147610499Y-118885085D02*
X147210500Y-119285084D01*
X155734723Y-115200991D02*
X150099009Y-115200991D01*
X150099009Y-115200991D02*
X147610499Y-117689501D01*
X185100000Y-100200000D02*
X177500989Y-107799011D01*
X187900000Y-93798808D02*
X185100000Y-96598808D01*
X149454022Y-122700000D02*
X149056001Y-122301979D01*
X185100000Y-96598808D02*
X185100000Y-100200000D01*
X187900000Y-93000000D02*
X187900000Y-93798808D01*
X177500989Y-107799011D02*
X169500989Y-107799011D01*
X169500989Y-107799011D02*
X154600000Y-122700000D01*
X154600000Y-122700000D02*
X149454022Y-122700000D01*
X149056001Y-122301979D02*
X148490316Y-122301979D01*
X184700000Y-100000000D02*
X177300000Y-107400000D01*
X184700000Y-96434522D02*
X184700000Y-100000000D01*
X186800000Y-94334522D02*
X184700000Y-96434522D01*
X186800000Y-93000000D02*
X186800000Y-94334522D01*
X155097023Y-121602977D02*
X148154794Y-121602977D01*
X177300000Y-107400000D02*
X169300000Y-107400000D01*
X169300000Y-107400000D02*
X155097023Y-121602977D01*
X148154794Y-121602977D02*
X147961691Y-121796080D01*
X147961691Y-121796080D02*
X147598061Y-121796080D01*
X142262717Y-121997032D02*
X141865685Y-121997032D01*
X144163707Y-123898022D02*
X142262717Y-121997032D01*
X169996814Y-108996044D02*
X155094836Y-123898022D01*
X178888478Y-108996044D02*
X169996814Y-108996044D01*
X155094836Y-123898022D02*
X144163707Y-123898022D01*
X194300000Y-92900000D02*
X194300000Y-93584522D01*
X194300000Y-93584522D02*
X178888478Y-108996044D01*
X141865685Y-121997032D02*
X141300000Y-121997032D01*
X189899002Y-96300998D02*
X188864478Y-96300998D01*
X169666264Y-108198022D02*
X154764286Y-123100000D01*
X187500000Y-97665476D02*
X187500000Y-98400000D01*
X154764286Y-123100000D02*
X145800000Y-123100000D01*
X188864478Y-96300998D02*
X187500000Y-97665476D01*
X193200000Y-93000000D02*
X189899002Y-96300998D01*
X142899999Y-120199999D02*
X142500000Y-119800000D01*
X177701978Y-108198022D02*
X169666264Y-108198022D01*
X187500000Y-98400000D02*
X177701978Y-108198022D01*
X145800000Y-123100000D02*
X142899999Y-120199999D01*
D14*
X130400000Y-98300000D02*
X130400000Y-94500000D01*
X130400000Y-94500000D02*
X130400000Y-71200000D01*
D15*
X140900000Y-128000000D02*
X142300000Y-126600000D01*
X142300000Y-126600000D02*
X142500000Y-126600000D01*
D16*
X157200000Y-78700000D02*
X157200000Y-79800000D01*
X157200000Y-77500000D02*
X157200000Y-78700000D01*
X170000000Y-63900000D02*
X169998980Y-63898980D01*
X169998980Y-63898980D02*
X169998980Y-61002040D01*
D17*
X170000000Y-66000000D02*
X170000000Y-63900000D01*
D16*
X168000000Y-68000000D02*
X170000000Y-66000000D01*
D17*
X168000000Y-69900000D02*
X168000000Y-68000000D01*
D16*
X168000000Y-71200000D02*
X168000000Y-69900000D01*
X165000000Y-74200000D02*
X168000000Y-71200000D01*
X160500000Y-74200000D02*
X165000000Y-74200000D01*
X157200000Y-77500000D02*
X160500000Y-74200000D01*
X155600000Y-78700000D02*
X155600000Y-79800000D01*
X155600000Y-77500000D02*
X155600000Y-78700000D01*
X155600000Y-77500000D02*
X155600000Y-77000000D01*
X160000000Y-72600000D02*
X161900000Y-72600000D01*
X155600000Y-77000000D02*
X160000000Y-72600000D01*
X161900000Y-72600000D02*
X164000000Y-70500000D01*
X166000000Y-63900000D02*
X166001020Y-63898980D01*
X166001020Y-63898980D02*
X166001020Y-61002040D01*
D17*
X166000000Y-66000000D02*
X166000000Y-63900000D01*
D16*
X164000000Y-68000000D02*
X166000000Y-66000000D01*
X164000000Y-68100000D02*
X164000000Y-68000000D01*
D17*
X164000000Y-70500000D02*
X164000000Y-68100000D01*
D16*
X163600000Y-77500000D02*
X163600000Y-79700000D01*
X178000000Y-64100000D02*
X177999980Y-64099980D01*
X177999980Y-64099980D02*
X177999980Y-61002040D01*
D17*
X178000000Y-65900000D02*
X178000000Y-64100000D01*
D16*
X176000000Y-67900000D02*
X178000000Y-65900000D01*
D17*
X176000000Y-69900000D02*
X176000000Y-67900000D01*
D16*
X176000000Y-70600000D02*
X176000000Y-69900000D01*
X169499999Y-77100001D02*
X176000000Y-70600000D01*
X163600000Y-77500000D02*
X163999999Y-77100001D01*
X163999999Y-77100001D02*
X169499999Y-77100001D01*
X162000000Y-78600000D02*
X162000000Y-79700000D01*
X162000000Y-77500000D02*
X162000000Y-78600000D01*
X172000000Y-68200000D02*
X172000000Y-68100000D01*
X172000000Y-68100000D02*
X173999480Y-66100520D01*
X173999480Y-66100520D02*
X173999480Y-65699480D01*
D17*
X173999480Y-63924382D02*
X173999480Y-65699480D01*
D16*
X173999480Y-63924382D02*
X173999480Y-61002040D01*
D17*
X172000000Y-70200000D02*
X172000000Y-68200000D01*
D16*
X172000000Y-72600000D02*
X172000000Y-70200000D01*
X168800000Y-75800000D02*
X172000000Y-72600000D01*
X163134315Y-75800000D02*
X168800000Y-75800000D01*
X162000000Y-77500000D02*
X162000000Y-76934315D01*
X162000000Y-76934315D02*
X163134315Y-75800000D01*
D15*
X130500000Y-69800000D02*
X135100000Y-69800000D01*
X129600000Y-70700000D02*
X130500000Y-69800000D01*
X129600000Y-104200000D02*
X129600000Y-70700000D01*
X129600000Y-117500000D02*
X129600000Y-104200000D01*
X130800000Y-118700000D02*
X129600000Y-117500000D01*
X132200000Y-118700000D02*
X130800000Y-118700000D01*
X135399999Y-99915686D02*
X137400000Y-97915685D01*
X137400000Y-97865685D02*
X137400000Y-97300000D01*
X137400000Y-97915685D02*
X137400000Y-97865685D01*
X135399999Y-110900001D02*
X135399999Y-99915686D01*
X134800000Y-111500000D02*
X135399999Y-110900001D01*
X136500000Y-114400000D02*
X136899999Y-114000001D01*
X136899999Y-102434314D02*
X142134313Y-97200000D01*
X142284321Y-97200000D02*
X142850006Y-97200000D01*
X142134313Y-97200000D02*
X142284321Y-97200000D01*
X136899999Y-114000001D02*
X136899999Y-102434314D01*
X139598118Y-106789095D02*
X149187213Y-97200000D01*
X149187213Y-97200000D02*
X149350000Y-97200000D01*
X141564651Y-109346799D02*
X153262564Y-97648886D01*
X153262564Y-97648886D02*
X155035429Y-97648886D01*
X155035429Y-97648886D02*
X155384315Y-97300000D01*
X155384315Y-97300000D02*
X155950000Y-97300000D01*
X154400000Y-101500000D02*
X159185986Y-101500000D01*
X142800000Y-110800000D02*
X143400000Y-111400000D01*
X163100001Y-97585985D02*
X163500000Y-97185986D01*
X143400000Y-111400000D02*
X144500000Y-111400000D01*
X159185986Y-101500000D02*
X163100001Y-97585985D01*
X144500000Y-111400000D02*
X154400000Y-101500000D01*
X142899999Y-114799999D02*
X144928573Y-114799999D01*
X144928573Y-114799999D02*
X155524616Y-104203956D01*
X142500000Y-114400000D02*
X142899999Y-114799999D01*
X155524616Y-104203956D02*
X159603186Y-104203956D01*
X169800001Y-97449999D02*
X170200000Y-97050000D01*
X169550001Y-97699999D02*
X169800001Y-97449999D01*
X166107143Y-97699999D02*
X169550001Y-97699999D01*
X159603186Y-104203956D02*
X166107143Y-97699999D01*
X160099011Y-105400989D02*
X165400000Y-100100000D01*
X173350000Y-100100000D02*
X175950001Y-97499999D01*
X165400000Y-100100000D02*
X173350000Y-100100000D01*
X157099011Y-105400989D02*
X160099011Y-105400989D01*
X175950001Y-97499999D02*
X176350000Y-97100000D01*
X149500000Y-113000000D02*
X157099011Y-105400989D01*
X139964479Y-117200999D02*
X136799999Y-120365479D01*
X136799999Y-120365479D02*
X136799999Y-120900001D01*
X155569448Y-114801980D02*
X149933734Y-114801980D01*
X175726592Y-103701980D02*
X166669448Y-103701980D01*
X181300000Y-98128572D02*
X175726592Y-103701980D01*
X149933734Y-114801980D02*
X147534715Y-117200999D01*
X147534715Y-117200999D02*
X139964479Y-117200999D01*
X136799999Y-120900001D02*
X136400000Y-121300000D01*
X166669448Y-103701980D02*
X155569448Y-114801980D01*
X181300000Y-97100000D02*
X181300000Y-98128572D01*
X143298012Y-121900000D02*
X144897023Y-123499011D01*
X144897023Y-123499011D02*
X154929561Y-123499011D01*
X177902967Y-108597033D02*
X189100001Y-97399999D01*
X154929561Y-123499011D02*
X169831539Y-108597033D01*
X189100001Y-97399999D02*
X189500000Y-97000000D01*
X169831539Y-108597033D02*
X177902967Y-108597033D01*
X194400001Y-97550001D02*
X194800000Y-97150002D01*
X155267253Y-124297033D02*
X170169231Y-109395055D01*
X143574168Y-124297033D02*
X155267253Y-124297033D01*
X142161738Y-122884603D02*
X143574168Y-124297033D01*
X182554947Y-109395055D02*
X194400001Y-97550001D01*
X170169231Y-109395055D02*
X182554947Y-109395055D01*
X166504173Y-103302969D02*
X175561317Y-103302969D01*
X155404173Y-114402969D02*
X166504173Y-103302969D01*
X139501192Y-117100000D02*
X139799204Y-116801988D01*
X202531665Y-80468335D02*
X203144374Y-80468335D01*
X137800000Y-117100000D02*
X139501192Y-117100000D01*
X178100000Y-90400000D02*
X183000000Y-85500000D01*
X183000000Y-85500000D02*
X197500000Y-85500000D01*
X149768459Y-114402969D02*
X155404173Y-114402969D01*
X139799204Y-116801988D02*
X147369440Y-116801988D01*
X197500000Y-85500000D02*
X202531665Y-80468335D01*
X203144374Y-80468335D02*
X203710059Y-80468335D01*
X178100000Y-100764286D02*
X178100000Y-90400000D01*
X147369440Y-116801988D02*
X149768459Y-114402969D01*
X175561317Y-103302969D02*
X178100000Y-100764286D01*
X149603184Y-114003958D02*
X147507142Y-116100000D01*
X166262612Y-102903958D02*
X155162612Y-114003958D01*
X177700989Y-100599011D02*
X175396042Y-102903958D01*
X177700989Y-90234725D02*
X177700989Y-100599011D01*
X175396042Y-102903958D02*
X166262612Y-102903958D01*
X147507142Y-116100000D02*
X139865685Y-116100000D01*
X139865685Y-116100000D02*
X139300000Y-116100000D01*
X201251675Y-80759775D02*
X201251675Y-81048325D01*
X155162612Y-114003958D02*
X149603184Y-114003958D01*
X201251675Y-81048325D02*
X197300000Y-85000000D01*
X197300000Y-85000000D02*
X182935714Y-85000000D01*
X182935714Y-85000000D02*
X177700989Y-90234725D01*
G36*
X205320478Y-49589396D02*
X205625034Y-49695454D01*
X205898522Y-49866348D01*
X206127352Y-50093585D01*
X206300152Y-50365876D01*
X206408332Y-50669681D01*
X206450001Y-51019131D01*
X206450000Y-136969253D01*
X206410604Y-137320479D01*
X206304547Y-137625033D01*
X206133652Y-137898522D01*
X205906415Y-138127352D01*
X205634124Y-138300152D01*
X205330323Y-138408331D01*
X204980877Y-138450000D01*
X131028678Y-138450000D01*
X130679521Y-138410836D01*
X130374967Y-138304779D01*
X130101478Y-138133884D01*
X129872648Y-137906647D01*
X129699848Y-137634356D01*
X129591669Y-137330555D01*
X129550000Y-136981109D01*
X129550000Y-121120979D01*
X135500000Y-121120979D01*
X135500000Y-121479021D01*
X135637017Y-121809809D01*
X135890191Y-122062983D01*
X136220979Y-122200000D01*
X136579021Y-122200000D01*
X136909809Y-122062983D01*
X137162983Y-121809809D01*
X137300000Y-121479021D01*
X137300000Y-121231666D01*
X137365186Y-121134109D01*
X137399999Y-120959092D01*
X137399999Y-120959088D01*
X137411752Y-120900002D01*
X137399999Y-120840915D01*
X137399999Y-120614006D01*
X138770607Y-119243399D01*
X138911923Y-119384715D01*
X138934813Y-119499792D01*
X139067425Y-119698260D01*
X139117521Y-119731733D01*
X139300001Y-119914213D01*
X139300000Y-122705200D01*
X139288247Y-122764286D01*
X139300000Y-122823372D01*
X139300000Y-122823376D01*
X139334813Y-122998393D01*
X139467425Y-123196861D01*
X139517522Y-123230335D01*
X142084952Y-125797766D01*
X141990191Y-125837017D01*
X141737017Y-126090191D01*
X141600000Y-126420979D01*
X141600000Y-126451472D01*
X140951473Y-127100000D01*
X140720979Y-127100000D01*
X140390191Y-127237017D01*
X140137017Y-127490191D01*
X140000000Y-127820979D01*
X140000000Y-128179021D01*
X140137017Y-128509809D01*
X140390191Y-128762983D01*
X140720979Y-128900000D01*
X141079021Y-128900000D01*
X141409809Y-128762983D01*
X141662983Y-128509809D01*
X141800000Y-128179021D01*
X141800000Y-127948527D01*
X142269748Y-127478779D01*
X142320979Y-127500000D01*
X142679021Y-127500000D01*
X143009809Y-127362983D01*
X143262983Y-127109809D01*
X143302234Y-127015048D01*
X145200001Y-128912815D01*
X145200000Y-134327208D01*
X145037017Y-134490191D01*
X144900000Y-134820979D01*
X144900000Y-135179021D01*
X145037017Y-135509809D01*
X145290191Y-135762983D01*
X145620979Y-135900000D01*
X145979021Y-135900000D01*
X146309809Y-135762983D01*
X146551813Y-135520979D01*
X157500000Y-135520979D01*
X157500000Y-135879021D01*
X157637017Y-136209809D01*
X157890191Y-136462983D01*
X158220979Y-136600000D01*
X158350111Y-136600000D01*
X158300000Y-136720979D01*
X158300000Y-137079021D01*
X158437017Y-137409809D01*
X158690191Y-137662983D01*
X159020979Y-137800000D01*
X159379021Y-137800000D01*
X159709809Y-137662983D01*
X159962983Y-137409809D01*
X160100000Y-137079021D01*
X160100000Y-136989948D01*
X167187787Y-129902161D01*
X181199490Y-129902161D01*
X181199490Y-130697759D01*
X181503952Y-131432795D01*
X182066525Y-131995368D01*
X182801561Y-132299830D01*
X183597159Y-132299830D01*
X184332195Y-131995368D01*
X184894768Y-131432795D01*
X185199230Y-130697759D01*
X185199230Y-129902161D01*
X184894768Y-129167125D01*
X184332195Y-128604552D01*
X183597159Y-128300090D01*
X182801561Y-128300090D01*
X182066525Y-128604552D01*
X181503952Y-129167125D01*
X181199490Y-129902161D01*
X167187787Y-129902161D01*
X167289949Y-129800000D01*
X168831065Y-129800000D01*
X168900000Y-129813712D01*
X168968935Y-129800000D01*
X168968940Y-129800000D01*
X169173126Y-129759385D01*
X169404671Y-129604671D01*
X169443724Y-129546224D01*
X170445211Y-128544739D01*
X170503650Y-128505691D01*
X170542698Y-128447252D01*
X170542702Y-128447248D01*
X170658364Y-128274147D01*
X170658365Y-128274146D01*
X170667217Y-128229644D01*
X170971596Y-128534023D01*
X171637549Y-128809870D01*
X172358371Y-128809870D01*
X173024324Y-128534023D01*
X173534023Y-128024324D01*
X173809870Y-127358371D01*
X173809870Y-126637549D01*
X173534023Y-125971596D01*
X173024324Y-125461897D01*
X172358371Y-125186050D01*
X171637549Y-125186050D01*
X170971596Y-125461897D01*
X170698980Y-125734513D01*
X170698980Y-124671248D01*
X171025344Y-124536063D01*
X171535043Y-124026364D01*
X171810890Y-123360411D01*
X171810890Y-122639589D01*
X171535043Y-121973636D01*
X171025344Y-121463937D01*
X170359391Y-121188090D01*
X169638569Y-121188090D01*
X168972616Y-121463937D01*
X168462917Y-121973636D01*
X168187070Y-122639589D01*
X168187070Y-123360411D01*
X168462917Y-124026364D01*
X168972616Y-124536063D01*
X169298981Y-124671248D01*
X169298980Y-125734513D01*
X169026364Y-125461897D01*
X168360411Y-125186050D01*
X167639589Y-125186050D01*
X166973636Y-125461897D01*
X166701020Y-125734513D01*
X166701020Y-124671248D01*
X167027384Y-124536063D01*
X167537083Y-124026364D01*
X167812930Y-123360411D01*
X167812930Y-122639589D01*
X167537083Y-121973636D01*
X167027384Y-121463937D01*
X166361431Y-121188090D01*
X165640609Y-121188090D01*
X164974656Y-121463937D01*
X164464957Y-121973636D01*
X164189110Y-122639589D01*
X164189110Y-123360411D01*
X164464957Y-124026364D01*
X164974656Y-124536063D01*
X165301021Y-124671248D01*
X165301021Y-125734514D01*
X165028404Y-125461897D01*
X164362451Y-125186050D01*
X163641629Y-125186050D01*
X162975676Y-125461897D01*
X162465977Y-125971596D01*
X162190130Y-126637549D01*
X162190130Y-127358371D01*
X162465977Y-128024324D01*
X162975676Y-128534023D01*
X163641629Y-128809870D01*
X164362451Y-128809870D01*
X165028404Y-128534023D01*
X165301020Y-128261407D01*
X165301020Y-128709030D01*
X159010052Y-135000000D01*
X158972792Y-135000000D01*
X158909809Y-134937017D01*
X158579021Y-134800000D01*
X158220979Y-134800000D01*
X157890191Y-134937017D01*
X157637017Y-135190191D01*
X157500000Y-135520979D01*
X146551813Y-135520979D01*
X146562983Y-135509809D01*
X146624944Y-135360221D01*
X146720979Y-135400000D01*
X147079021Y-135400000D01*
X147409809Y-135262983D01*
X147662983Y-135009809D01*
X147800000Y-134679021D01*
X147800000Y-134320979D01*
X147662983Y-133990191D01*
X147409809Y-133737017D01*
X147079021Y-133600000D01*
X146848527Y-133600000D01*
X146800000Y-133551473D01*
X146800000Y-129902161D01*
X150800770Y-129902161D01*
X150800770Y-130697759D01*
X151105232Y-131432795D01*
X151667805Y-131995368D01*
X152402841Y-132299830D01*
X153198439Y-132299830D01*
X153933475Y-131995368D01*
X154496048Y-131432795D01*
X154800510Y-130697759D01*
X154800510Y-129902161D01*
X154496048Y-129167125D01*
X153933475Y-128604552D01*
X153198439Y-128300090D01*
X152402841Y-128300090D01*
X151667805Y-128604552D01*
X151105232Y-129167125D01*
X150800770Y-129902161D01*
X146800000Y-129902161D01*
X146800000Y-128559086D01*
X146811753Y-128499999D01*
X146800000Y-128440913D01*
X146800000Y-128440909D01*
X146765187Y-128265892D01*
X146632575Y-128067425D01*
X146582481Y-128033953D01*
X143428299Y-124879772D01*
X143515077Y-124897033D01*
X143515080Y-124897033D01*
X143574168Y-124908786D01*
X143633256Y-124897033D01*
X155208167Y-124897033D01*
X155267253Y-124908786D01*
X155326339Y-124897033D01*
X155326344Y-124897033D01*
X155501361Y-124862220D01*
X155699828Y-124729608D01*
X155733302Y-124679511D01*
X162180335Y-118232478D01*
X162180335Y-120313950D01*
X162219141Y-120509040D01*
X162329650Y-120674430D01*
X162495040Y-120784939D01*
X162690130Y-120823745D01*
X165313950Y-120823745D01*
X165509040Y-120784939D01*
X165674430Y-120674430D01*
X165784939Y-120509040D01*
X165823745Y-120313950D01*
X165823745Y-120223496D01*
X166785615Y-120223496D01*
X166918170Y-120499556D01*
X167573595Y-120799563D01*
X168293936Y-120825913D01*
X168969527Y-120574595D01*
X169081830Y-120499556D01*
X169214385Y-120223496D01*
X168000000Y-119009111D01*
X166785615Y-120223496D01*
X165823745Y-120223496D01*
X165823745Y-119295976D01*
X166176127Y-119295976D01*
X166427445Y-119971567D01*
X166502484Y-120083870D01*
X166778544Y-120216425D01*
X167992929Y-119002040D01*
X168007071Y-119002040D01*
X169221456Y-120216425D01*
X169497516Y-120083870D01*
X169797523Y-119428445D01*
X169823873Y-118708104D01*
X169799145Y-118641629D01*
X170186050Y-118641629D01*
X170186050Y-119362451D01*
X170461897Y-120028404D01*
X170971596Y-120538103D01*
X171637549Y-120813950D01*
X172358371Y-120813950D01*
X173024324Y-120538103D01*
X173534023Y-120028404D01*
X173809870Y-119362451D01*
X173809870Y-118641629D01*
X173534023Y-117975676D01*
X173024324Y-117465977D01*
X172358371Y-117190130D01*
X171637549Y-117190130D01*
X170971596Y-117465977D01*
X170461897Y-117975676D01*
X170186050Y-118641629D01*
X169799145Y-118641629D01*
X169572555Y-118032513D01*
X169497516Y-117920210D01*
X169221456Y-117787655D01*
X168007071Y-119002040D01*
X167992929Y-119002040D01*
X166778544Y-117787655D01*
X166502484Y-117920210D01*
X166202477Y-118575635D01*
X166176127Y-119295976D01*
X165823745Y-119295976D01*
X165823745Y-117780584D01*
X166785615Y-117780584D01*
X168000000Y-118994969D01*
X169214385Y-117780584D01*
X169081830Y-117504524D01*
X168426405Y-117204517D01*
X167706064Y-117178167D01*
X167030473Y-117429485D01*
X166918170Y-117504524D01*
X166785615Y-117780584D01*
X165823745Y-117780584D01*
X165823745Y-117690130D01*
X165784939Y-117495040D01*
X165674430Y-117329650D01*
X165509040Y-117219141D01*
X165313950Y-117180335D01*
X163232479Y-117180335D01*
X168608153Y-111804661D01*
X179698350Y-111804661D01*
X179698350Y-112600259D01*
X180002812Y-113335295D01*
X180565385Y-113897868D01*
X181300421Y-114202330D01*
X182096019Y-114202330D01*
X182831055Y-113897868D01*
X183393628Y-113335295D01*
X183698090Y-112600259D01*
X183698090Y-111804661D01*
X183393628Y-111069625D01*
X182831055Y-110507052D01*
X182096019Y-110202590D01*
X181300421Y-110202590D01*
X180565385Y-110507052D01*
X180002812Y-111069625D01*
X179698350Y-111804661D01*
X168608153Y-111804661D01*
X170417759Y-109995055D01*
X182495861Y-109995055D01*
X182554947Y-110006808D01*
X182614033Y-109995055D01*
X182614038Y-109995055D01*
X182789055Y-109960242D01*
X182987522Y-109827630D01*
X183020996Y-109777533D01*
X194748528Y-98050002D01*
X194979021Y-98050002D01*
X195309809Y-97912985D01*
X195562983Y-97659811D01*
X195700000Y-97329023D01*
X195700000Y-96970981D01*
X195562983Y-96640193D01*
X195309809Y-96387019D01*
X194979021Y-96250002D01*
X194620979Y-96250002D01*
X194290191Y-96387019D01*
X194037017Y-96640193D01*
X193900000Y-96970981D01*
X193900000Y-97201474D01*
X182306420Y-108795055D01*
X179937994Y-108795055D01*
X194682481Y-94050569D01*
X194732575Y-94017097D01*
X194865187Y-93818630D01*
X194900000Y-93643613D01*
X194900000Y-93643609D01*
X194911753Y-93584523D01*
X194907857Y-93564935D01*
X195062983Y-93409809D01*
X195200000Y-93079021D01*
X195200000Y-92720979D01*
X195062983Y-92390191D01*
X194809809Y-92137017D01*
X194479021Y-92000000D01*
X194120979Y-92000000D01*
X193790191Y-92137017D01*
X193695937Y-92231271D01*
X193379021Y-92100000D01*
X193020979Y-92100000D01*
X192690191Y-92237017D01*
X192437017Y-92490191D01*
X192300000Y-92820979D01*
X192300000Y-93051472D01*
X189650475Y-95700998D01*
X188923563Y-95700998D01*
X188864477Y-95689245D01*
X188805391Y-95700998D01*
X188805387Y-95700998D01*
X188630370Y-95735811D01*
X188431903Y-95868423D01*
X188398431Y-95918517D01*
X187117522Y-97199427D01*
X187067425Y-97232901D01*
X186934813Y-97431369D01*
X186900000Y-97606386D01*
X186900000Y-97606390D01*
X186888247Y-97665476D01*
X186900000Y-97724562D01*
X186900000Y-98151471D01*
X185700000Y-99351471D01*
X185700000Y-96847335D01*
X188282481Y-94264855D01*
X188332575Y-94231383D01*
X188465187Y-94032916D01*
X188500000Y-93857899D01*
X188500000Y-93857895D01*
X188511753Y-93798808D01*
X188500000Y-93739722D01*
X188500000Y-93672792D01*
X188662983Y-93509809D01*
X188800000Y-93179021D01*
X188800000Y-92820979D01*
X188662983Y-92490191D01*
X188409809Y-92237017D01*
X188079021Y-92100000D01*
X187720979Y-92100000D01*
X187390191Y-92237017D01*
X187350000Y-92277208D01*
X187309809Y-92237017D01*
X186979021Y-92100000D01*
X186620979Y-92100000D01*
X186290191Y-92237017D01*
X186037017Y-92490191D01*
X185900000Y-92820979D01*
X185900000Y-93179021D01*
X186037017Y-93509809D01*
X186200001Y-93672793D01*
X186200001Y-94085993D01*
X184317522Y-95968473D01*
X184267425Y-96001947D01*
X184134813Y-96200415D01*
X184100000Y-96375432D01*
X184100000Y-96375436D01*
X184088247Y-96434522D01*
X184100000Y-96493608D01*
X184100001Y-99751471D01*
X177051473Y-106800000D01*
X169359088Y-106800000D01*
X169300000Y-106788247D01*
X169240912Y-106800000D01*
X169240909Y-106800000D01*
X169065892Y-106834813D01*
X168867425Y-106967425D01*
X168833953Y-107017519D01*
X154848496Y-121002977D01*
X148213880Y-121002977D01*
X148154794Y-120991224D01*
X148095708Y-121002977D01*
X148095703Y-121002977D01*
X148054797Y-121011114D01*
X147777082Y-120896080D01*
X147419040Y-120896080D01*
X147088252Y-121033097D01*
X146835078Y-121286271D01*
X146698061Y-121617059D01*
X146698061Y-121975101D01*
X146835078Y-122305889D01*
X147029189Y-122500000D01*
X146048528Y-122500000D01*
X143400000Y-119851473D01*
X143400000Y-119620979D01*
X143262983Y-119290191D01*
X143009809Y-119037017D01*
X142679021Y-118900000D01*
X142320979Y-118900000D01*
X141990191Y-119037017D01*
X141737017Y-119290191D01*
X141600000Y-119620979D01*
X141600000Y-119979021D01*
X141737017Y-120309809D01*
X141990191Y-120562983D01*
X142320979Y-120700000D01*
X142551473Y-120700000D01*
X142929827Y-121078354D01*
X142788203Y-121137017D01*
X142535029Y-121390191D01*
X142513234Y-121442809D01*
X142496825Y-121431845D01*
X142321808Y-121397032D01*
X142321803Y-121397032D01*
X142262717Y-121385279D01*
X142203631Y-121397032D01*
X141972792Y-121397032D01*
X141809809Y-121234049D01*
X141479021Y-121097032D01*
X141120979Y-121097032D01*
X140900000Y-121188565D01*
X140900000Y-118572792D01*
X141062983Y-118409809D01*
X141200000Y-118079021D01*
X141200000Y-117800999D01*
X147010499Y-117800999D01*
X147010500Y-118393774D01*
X146700691Y-118522101D01*
X146447517Y-118775275D01*
X146310500Y-119106063D01*
X146310500Y-119464105D01*
X146447517Y-119794893D01*
X146700691Y-120048067D01*
X147031479Y-120185084D01*
X147389521Y-120185084D01*
X147720309Y-120048067D01*
X147973483Y-119794893D01*
X148110500Y-119464105D01*
X148110500Y-119216750D01*
X148175685Y-119119194D01*
X148175686Y-119119193D01*
X148210499Y-118944176D01*
X148210499Y-118944172D01*
X148222252Y-118885086D01*
X148210499Y-118825999D01*
X148210499Y-117938028D01*
X150347538Y-115800991D01*
X150551871Y-115800991D01*
X150461978Y-116018011D01*
X150461978Y-116376053D01*
X150598995Y-116706841D01*
X150852169Y-116960015D01*
X151182957Y-117097032D01*
X151540999Y-117097032D01*
X151871787Y-116960015D01*
X152124961Y-116706841D01*
X152261978Y-116376053D01*
X152261978Y-116200000D01*
X155840914Y-116200000D01*
X155900000Y-116211753D01*
X155959086Y-116200000D01*
X155959091Y-116200000D01*
X156134108Y-116165187D01*
X156332575Y-116032575D01*
X156366049Y-115982478D01*
X167248529Y-105100000D01*
X176005200Y-105100000D01*
X176064286Y-105111753D01*
X176123372Y-105100000D01*
X176123377Y-105100000D01*
X176298394Y-105065187D01*
X176496861Y-104932575D01*
X176530335Y-104882478D01*
X182881491Y-98531323D01*
X182931585Y-98497851D01*
X183064197Y-98299384D01*
X183099010Y-98124367D01*
X183099010Y-98124363D01*
X183110763Y-98065276D01*
X183099010Y-98006190D01*
X183099010Y-94758095D01*
X183110763Y-94699009D01*
X183099010Y-94639923D01*
X183099010Y-94639919D01*
X183064197Y-94464902D01*
X182931585Y-94266435D01*
X182881492Y-94232964D01*
X182210660Y-93562132D01*
X182262983Y-93509809D01*
X182400000Y-93179021D01*
X182400000Y-92820979D01*
X182262983Y-92490191D01*
X182009809Y-92237017D01*
X181679021Y-92100000D01*
X181320979Y-92100000D01*
X180990191Y-92237017D01*
X180859600Y-92367608D01*
X180709809Y-92217817D01*
X180379021Y-92080800D01*
X180020979Y-92080800D01*
X179690191Y-92217817D01*
X179437017Y-92470991D01*
X179300000Y-92801779D01*
X179300000Y-93159821D01*
X179437017Y-93490609D01*
X179690191Y-93743783D01*
X180020979Y-93880800D01*
X180251473Y-93880800D01*
X181500000Y-95129328D01*
X181500000Y-96208690D01*
X181479021Y-96200000D01*
X181120979Y-96200000D01*
X180790191Y-96337017D01*
X180537017Y-96590191D01*
X180400000Y-96920979D01*
X180400000Y-97279021D01*
X180537017Y-97609809D01*
X180700001Y-97772793D01*
X180700001Y-97880043D01*
X178700000Y-99880044D01*
X178700000Y-90648527D01*
X183248528Y-86100000D01*
X197440914Y-86100000D01*
X197500000Y-86111753D01*
X197559086Y-86100000D01*
X197559091Y-86100000D01*
X197734108Y-86065187D01*
X197932575Y-85932575D01*
X197966049Y-85882478D01*
X202780193Y-81068335D01*
X203037267Y-81068335D01*
X203200250Y-81231318D01*
X203531038Y-81368335D01*
X203889080Y-81368335D01*
X204219868Y-81231318D01*
X204473042Y-80978144D01*
X204610059Y-80647356D01*
X204610059Y-80289314D01*
X204473042Y-79958526D01*
X204219868Y-79705352D01*
X203889080Y-79568335D01*
X203531038Y-79568335D01*
X203200250Y-79705352D01*
X203037267Y-79868335D01*
X202590751Y-79868335D01*
X202531665Y-79856582D01*
X202472578Y-79868335D01*
X202472574Y-79868335D01*
X202297557Y-79903148D01*
X202099090Y-80035760D01*
X202065618Y-80085854D01*
X201958082Y-80193390D01*
X201761484Y-79996792D01*
X201430696Y-79859775D01*
X201072654Y-79859775D01*
X200741866Y-79996792D01*
X200488692Y-80249966D01*
X200351675Y-80580754D01*
X200351675Y-80938796D01*
X200398831Y-81052641D01*
X197051473Y-84400000D01*
X182994800Y-84400000D01*
X182935713Y-84388247D01*
X182876627Y-84400000D01*
X182876623Y-84400000D01*
X182701606Y-84434813D01*
X182503139Y-84567425D01*
X182469667Y-84617519D01*
X177318511Y-89768676D01*
X177268414Y-89802150D01*
X177135802Y-90000618D01*
X177100989Y-90175635D01*
X177100989Y-90175639D01*
X177089236Y-90234725D01*
X177100989Y-90293811D01*
X177100990Y-96578198D01*
X176859809Y-96337017D01*
X176529021Y-96200000D01*
X176170979Y-96200000D01*
X175840191Y-96337017D01*
X175700000Y-96477208D01*
X175700000Y-93672792D01*
X175862983Y-93509809D01*
X176000000Y-93179021D01*
X176000000Y-92820979D01*
X175862983Y-92490191D01*
X175609809Y-92237017D01*
X175279021Y-92100000D01*
X174920979Y-92100000D01*
X174590191Y-92237017D01*
X174346724Y-92480484D01*
X174199719Y-92419593D01*
X173841677Y-92419593D01*
X173510889Y-92556610D01*
X173257715Y-92809784D01*
X173120698Y-93140572D01*
X173120698Y-93498614D01*
X173257715Y-93829402D01*
X173420699Y-93992386D01*
X173420698Y-97302202D01*
X172020923Y-98701978D01*
X165953692Y-98701978D01*
X166355671Y-98299999D01*
X169490915Y-98299999D01*
X169550001Y-98311752D01*
X169609087Y-98299999D01*
X169609092Y-98299999D01*
X169784109Y-98265186D01*
X169982576Y-98132574D01*
X170016050Y-98082477D01*
X170148527Y-97950000D01*
X170379021Y-97950000D01*
X170709809Y-97812983D01*
X170962983Y-97559809D01*
X171100000Y-97229021D01*
X171100000Y-96870979D01*
X170962983Y-96540191D01*
X170709809Y-96287017D01*
X170379021Y-96150000D01*
X170020979Y-96150000D01*
X169690191Y-96287017D01*
X169437017Y-96540191D01*
X169300000Y-96870979D01*
X169300000Y-97099999D01*
X166400000Y-97099999D01*
X166400000Y-96429327D01*
X168748528Y-94080800D01*
X168979021Y-94080800D01*
X169309809Y-93943783D01*
X169562983Y-93690609D01*
X169700000Y-93359821D01*
X169700000Y-93001779D01*
X169562983Y-92670991D01*
X169309809Y-92417817D01*
X168979021Y-92280800D01*
X168620979Y-92280800D01*
X168290191Y-92417817D01*
X168087851Y-92620157D01*
X168057344Y-92589650D01*
X167726556Y-92452633D01*
X167368514Y-92452633D01*
X167037726Y-92589650D01*
X166784552Y-92842824D01*
X166647535Y-93173612D01*
X166647535Y-93404105D01*
X165017522Y-95034119D01*
X164967425Y-95067593D01*
X164834813Y-95266061D01*
X164800000Y-95441078D01*
X164800000Y-95441082D01*
X164788247Y-95500168D01*
X164800000Y-95559255D01*
X164800001Y-96951471D01*
X164400000Y-97351472D01*
X164400000Y-97006965D01*
X164262983Y-96676177D01*
X164009809Y-96423003D01*
X163679021Y-96285986D01*
X163320979Y-96285986D01*
X163000000Y-96418940D01*
X163000000Y-93853592D01*
X163162983Y-93690609D01*
X163300000Y-93359821D01*
X163300000Y-93001779D01*
X163162983Y-92670991D01*
X162909809Y-92417817D01*
X162579021Y-92280800D01*
X162220979Y-92280800D01*
X161890191Y-92417817D01*
X161779312Y-92528696D01*
X161466348Y-92399062D01*
X161108306Y-92399062D01*
X160777518Y-92536079D01*
X160524344Y-92789253D01*
X160387327Y-93120041D01*
X160387327Y-93478083D01*
X160524344Y-93808871D01*
X160699250Y-93983777D01*
X160722140Y-94098854D01*
X160854752Y-94297322D01*
X160904848Y-94330795D01*
X161400001Y-94825949D01*
X161400000Y-96122899D01*
X157420923Y-100101978D01*
X156526529Y-100101978D01*
X156630397Y-100032575D01*
X156663871Y-99982479D01*
X157479507Y-99166843D01*
X157529600Y-99133372D01*
X157662212Y-98934905D01*
X157697025Y-98759888D01*
X157697025Y-98759884D01*
X157708778Y-98700798D01*
X157697025Y-98641711D01*
X157697025Y-94086213D01*
X157708778Y-94027125D01*
X157697025Y-93968037D01*
X157697025Y-93968034D01*
X157662212Y-93793017D01*
X157662212Y-93793016D01*
X157563072Y-93644644D01*
X157529600Y-93594550D01*
X157479506Y-93561078D01*
X157069900Y-93151473D01*
X157069900Y-92920979D01*
X156932883Y-92590191D01*
X156679709Y-92337017D01*
X156348921Y-92200000D01*
X155990879Y-92200000D01*
X155660091Y-92337017D01*
X155609513Y-92387595D01*
X155279021Y-92250700D01*
X154920979Y-92250700D01*
X154590191Y-92387717D01*
X154337017Y-92640891D01*
X154200000Y-92971679D01*
X154200000Y-93329721D01*
X154337017Y-93660509D01*
X154590191Y-93913683D01*
X154920979Y-94050700D01*
X155151473Y-94050700D01*
X156098022Y-94997250D01*
X156098022Y-96400000D01*
X155770979Y-96400000D01*
X155440191Y-96537017D01*
X155265286Y-96711922D01*
X155150207Y-96734813D01*
X154951740Y-96867425D01*
X154918266Y-96917522D01*
X154786902Y-97048886D01*
X153321650Y-97048886D01*
X153262563Y-97037133D01*
X153203477Y-97048886D01*
X153203473Y-97048886D01*
X153028456Y-97083699D01*
X152924127Y-97153410D01*
X152905445Y-97165893D01*
X152829989Y-97216311D01*
X152796517Y-97266405D01*
X151303167Y-98759755D01*
X151308778Y-98731548D01*
X151297025Y-98672461D01*
X151297025Y-94256113D01*
X151308778Y-94197025D01*
X151297025Y-94137937D01*
X151297025Y-94137934D01*
X151262212Y-93962917D01*
X151195393Y-93862916D01*
X151163072Y-93814544D01*
X151129600Y-93764450D01*
X151079506Y-93730978D01*
X150500000Y-93151473D01*
X150500000Y-92920979D01*
X150362983Y-92590191D01*
X150109809Y-92337017D01*
X149779021Y-92200000D01*
X149420979Y-92200000D01*
X149090191Y-92337017D01*
X148859600Y-92567608D01*
X148609809Y-92317817D01*
X148279021Y-92180800D01*
X147920979Y-92180800D01*
X147590191Y-92317817D01*
X147337017Y-92570991D01*
X147200000Y-92901779D01*
X147200000Y-93259821D01*
X147337017Y-93590609D01*
X147590191Y-93843783D01*
X147920979Y-93980800D01*
X148151473Y-93980800D01*
X149698018Y-95527346D01*
X149698018Y-96370001D01*
X149529021Y-96300000D01*
X149170979Y-96300000D01*
X148840191Y-96437017D01*
X148587017Y-96690191D01*
X148450000Y-97020979D01*
X148450000Y-97088685D01*
X139649591Y-105889095D01*
X139419097Y-105889095D01*
X139200000Y-105979848D01*
X139200000Y-104248527D01*
X144579506Y-98869022D01*
X144629600Y-98835550D01*
X144726704Y-98690225D01*
X144762212Y-98637083D01*
X144775271Y-98571430D01*
X144797025Y-98462066D01*
X144797025Y-98462063D01*
X144808778Y-98402975D01*
X144797025Y-98343887D01*
X144797025Y-94156111D01*
X144808778Y-94097025D01*
X144797025Y-94037938D01*
X144797025Y-94037934D01*
X144762212Y-93862917D01*
X144629600Y-93664450D01*
X144579507Y-93630979D01*
X143900000Y-92951473D01*
X143900000Y-92720979D01*
X143762983Y-92390191D01*
X143509809Y-92137017D01*
X143179021Y-92000000D01*
X142820979Y-92000000D01*
X142490191Y-92137017D01*
X142359600Y-92267608D01*
X142309809Y-92217817D01*
X141979021Y-92080800D01*
X141620979Y-92080800D01*
X141290191Y-92217817D01*
X141037017Y-92470991D01*
X140900000Y-92801779D01*
X140900000Y-93159821D01*
X141037017Y-93490609D01*
X141290191Y-93743783D01*
X141620979Y-93880800D01*
X141851473Y-93880800D01*
X143198015Y-95227343D01*
X143198015Y-96369997D01*
X143029027Y-96300000D01*
X142670985Y-96300000D01*
X142340197Y-96437017D01*
X142179899Y-96597315D01*
X142134313Y-96588247D01*
X142075225Y-96600000D01*
X142075222Y-96600000D01*
X141942000Y-96626499D01*
X141900204Y-96634813D01*
X141752401Y-96733573D01*
X141701738Y-96767425D01*
X141668266Y-96817519D01*
X136517519Y-101968267D01*
X136467425Y-102001739D01*
X136433953Y-102051833D01*
X136433952Y-102051834D01*
X136334813Y-102200206D01*
X136288246Y-102434314D01*
X136300000Y-102493405D01*
X136299999Y-113508690D01*
X135990191Y-113637017D01*
X135737017Y-113890191D01*
X135600000Y-114220979D01*
X135600000Y-114579021D01*
X135737017Y-114909809D01*
X135990191Y-115162983D01*
X136320979Y-115300000D01*
X136679021Y-115300000D01*
X137009809Y-115162983D01*
X137262983Y-114909809D01*
X137268878Y-114895576D01*
X137520979Y-115000000D01*
X137879021Y-115000000D01*
X138209809Y-114862983D01*
X138400000Y-114672792D01*
X138590191Y-114862983D01*
X138920979Y-115000000D01*
X139279021Y-115000000D01*
X139609809Y-114862983D01*
X139750000Y-114722792D01*
X139990191Y-114962983D01*
X140320979Y-115100000D01*
X140679021Y-115100000D01*
X141009809Y-114962983D01*
X141262983Y-114709809D01*
X141400000Y-114379021D01*
X141400000Y-114148527D01*
X142483481Y-113065047D01*
X142533574Y-113031576D01*
X142666186Y-112833109D01*
X142700999Y-112658092D01*
X142700999Y-112658088D01*
X142712752Y-112599002D01*
X142700999Y-112539916D01*
X142700999Y-111700000D01*
X142851472Y-111700000D01*
X142933953Y-111782481D01*
X142967425Y-111832575D01*
X143165892Y-111965187D01*
X143340909Y-112000000D01*
X143340913Y-112000000D01*
X143399999Y-112011753D01*
X143459086Y-112000000D01*
X144440914Y-112000000D01*
X144500000Y-112011753D01*
X144559086Y-112000000D01*
X144559091Y-112000000D01*
X144734108Y-111965187D01*
X144932575Y-111832575D01*
X144966049Y-111782478D01*
X154648528Y-102100000D01*
X159126900Y-102100000D01*
X159185986Y-102111753D01*
X159245072Y-102100000D01*
X159245077Y-102100000D01*
X159420094Y-102065187D01*
X159618561Y-101932575D01*
X159652035Y-101882478D01*
X163448528Y-98085986D01*
X163665486Y-98085986D01*
X158951473Y-102800000D01*
X155259088Y-102800000D01*
X155200000Y-102788247D01*
X155140912Y-102800000D01*
X155140909Y-102800000D01*
X155007687Y-102826499D01*
X154965891Y-102834813D01*
X154837669Y-102920489D01*
X154767425Y-102967425D01*
X154733953Y-103017519D01*
X145612132Y-112139340D01*
X145609809Y-112137017D01*
X145279021Y-112000000D01*
X144920979Y-112000000D01*
X144590191Y-112137017D01*
X144337017Y-112390191D01*
X144200000Y-112720979D01*
X144200000Y-113079021D01*
X144264834Y-113235545D01*
X144179021Y-113200000D01*
X143820979Y-113200000D01*
X143490191Y-113337017D01*
X143237017Y-113590191D01*
X143156754Y-113783962D01*
X143009809Y-113637017D01*
X142679021Y-113500000D01*
X142320979Y-113500000D01*
X141990191Y-113637017D01*
X141737017Y-113890191D01*
X141600000Y-114220979D01*
X141600000Y-114579021D01*
X141737017Y-114909809D01*
X141990191Y-115162983D01*
X142320979Y-115300000D01*
X142568334Y-115300000D01*
X142665891Y-115365186D01*
X142840908Y-115399999D01*
X142840912Y-115399999D01*
X142899998Y-115411752D01*
X142959085Y-115399999D01*
X144869487Y-115399999D01*
X144928573Y-115411752D01*
X144987659Y-115399999D01*
X144987664Y-115399999D01*
X145162681Y-115365186D01*
X145361148Y-115232574D01*
X145394622Y-115182477D01*
X146587305Y-113989794D01*
X146637017Y-114109809D01*
X146890191Y-114362983D01*
X147220979Y-114500000D01*
X147579021Y-114500000D01*
X147909809Y-114362983D01*
X148145484Y-114127308D01*
X148320979Y-114200000D01*
X148558614Y-114200000D01*
X147258615Y-115500000D01*
X139972792Y-115500000D01*
X139809809Y-115337017D01*
X139479021Y-115200000D01*
X139120979Y-115200000D01*
X138790191Y-115337017D01*
X138537017Y-115590191D01*
X138400000Y-115920979D01*
X138400000Y-116279021D01*
X138491533Y-116500000D01*
X138472792Y-116500000D01*
X138309809Y-116337017D01*
X137979021Y-116200000D01*
X137620979Y-116200000D01*
X137290191Y-116337017D01*
X137037017Y-116590191D01*
X136900000Y-116920979D01*
X136900000Y-117279021D01*
X137037017Y-117609809D01*
X137290191Y-117862983D01*
X137620979Y-118000000D01*
X137979021Y-118000000D01*
X138309809Y-117862983D01*
X138472792Y-117700000D01*
X138616950Y-117700000D01*
X136417521Y-119899430D01*
X136367424Y-119932904D01*
X136234812Y-120131372D01*
X136199999Y-120306389D01*
X136199999Y-120306393D01*
X136188246Y-120365479D01*
X136197082Y-120409899D01*
X135890191Y-120537017D01*
X135637017Y-120790191D01*
X135500000Y-121120979D01*
X129550000Y-121120979D01*
X129550000Y-118298527D01*
X130333953Y-119082481D01*
X130367425Y-119132575D01*
X130565892Y-119265187D01*
X130740909Y-119300000D01*
X130740913Y-119300000D01*
X130799999Y-119311753D01*
X130859086Y-119300000D01*
X131527208Y-119300000D01*
X131690191Y-119462983D01*
X132020979Y-119600000D01*
X132379021Y-119600000D01*
X132709809Y-119462983D01*
X132962983Y-119209809D01*
X133100000Y-118879021D01*
X133100000Y-118520979D01*
X132962983Y-118190191D01*
X132709809Y-117937017D01*
X132379021Y-117800000D01*
X132020979Y-117800000D01*
X131690191Y-117937017D01*
X131527208Y-118100000D01*
X131048528Y-118100000D01*
X130200000Y-117251473D01*
X130200000Y-111020979D01*
X132000000Y-111020979D01*
X132000000Y-111379021D01*
X132137017Y-111709809D01*
X132390191Y-111962983D01*
X132720979Y-112100000D01*
X133079021Y-112100000D01*
X133409809Y-111962983D01*
X133662983Y-111709809D01*
X133800000Y-111379021D01*
X133800000Y-111131666D01*
X133865186Y-111034109D01*
X133881135Y-110953927D01*
X134001982Y-111074774D01*
X133900000Y-111320979D01*
X133900000Y-111679021D01*
X134037017Y-112009809D01*
X134290191Y-112262983D01*
X134620979Y-112400000D01*
X134979021Y-112400000D01*
X135309809Y-112262983D01*
X135562983Y-112009809D01*
X135700000Y-111679021D01*
X135700000Y-111448528D01*
X135782480Y-111366047D01*
X135832574Y-111332576D01*
X135921159Y-111200000D01*
X135965186Y-111134110D01*
X135993813Y-110990191D01*
X135999999Y-110959092D01*
X135999999Y-110959089D01*
X136011752Y-110900001D01*
X135999999Y-110840913D01*
X135999999Y-100164213D01*
X137782485Y-98381729D01*
X137832575Y-98348260D01*
X137866045Y-98298169D01*
X137866048Y-98298166D01*
X137965187Y-98149793D01*
X137969408Y-98128573D01*
X138000000Y-97974776D01*
X138000000Y-97974773D01*
X138000492Y-97972300D01*
X138162983Y-97809809D01*
X138300000Y-97479021D01*
X138300000Y-97120979D01*
X138162983Y-96790191D01*
X137909809Y-96537017D01*
X137579021Y-96400000D01*
X137220979Y-96400000D01*
X137100000Y-96450111D01*
X137100000Y-93872792D01*
X137262983Y-93709809D01*
X137400000Y-93379021D01*
X137400000Y-93020979D01*
X137262983Y-92690191D01*
X137009809Y-92437017D01*
X136679021Y-92300000D01*
X136320979Y-92300000D01*
X135990191Y-92437017D01*
X135900000Y-92527208D01*
X135709809Y-92337017D01*
X135379021Y-92200000D01*
X135020979Y-92200000D01*
X134690191Y-92337017D01*
X134437017Y-92590191D01*
X134300000Y-92920979D01*
X134300000Y-93279021D01*
X134437017Y-93609809D01*
X134690191Y-93862983D01*
X134999999Y-93991310D01*
X135000000Y-98322900D01*
X132917521Y-100405380D01*
X132867424Y-100438854D01*
X132734812Y-100637322D01*
X132699999Y-100812339D01*
X132699999Y-100812343D01*
X132688246Y-100871429D01*
X132699999Y-100930515D01*
X132700000Y-110308690D01*
X132390191Y-110437017D01*
X132137017Y-110690191D01*
X132000000Y-111020979D01*
X130200000Y-111020979D01*
X130200000Y-105591310D01*
X130220979Y-105600000D01*
X130579021Y-105600000D01*
X130909809Y-105462983D01*
X131162983Y-105209809D01*
X131300000Y-104879021D01*
X131300000Y-104520979D01*
X131162983Y-104190191D01*
X131100000Y-104127208D01*
X131100000Y-77000000D01*
X154580409Y-77000000D01*
X154600000Y-77098490D01*
X154600000Y-77401511D01*
X154600001Y-78601507D01*
X154600000Y-78601511D01*
X154600001Y-79898490D01*
X154658022Y-80190181D01*
X154879041Y-80520960D01*
X155209820Y-80741979D01*
X155600000Y-80819591D01*
X155990181Y-80741979D01*
X156320960Y-80520960D01*
X156400001Y-80402667D01*
X156479041Y-80520960D01*
X156809820Y-80741979D01*
X157200000Y-80819591D01*
X157590181Y-80741979D01*
X157920960Y-80520960D01*
X158141979Y-80190181D01*
X158200000Y-79898490D01*
X158200000Y-77914212D01*
X160914213Y-75200000D01*
X162320102Y-75200000D01*
X161362540Y-76157563D01*
X161279041Y-76213355D01*
X161112543Y-76462538D01*
X161058021Y-76544135D01*
X160980409Y-76934315D01*
X161000000Y-77032805D01*
X161000000Y-77401511D01*
X161000001Y-78501507D01*
X161000000Y-78501511D01*
X161000001Y-79798490D01*
X161058022Y-80090181D01*
X161279041Y-80420960D01*
X161609820Y-80641979D01*
X162000000Y-80719591D01*
X162390181Y-80641979D01*
X162720960Y-80420960D01*
X162800001Y-80302667D01*
X162879041Y-80420960D01*
X163209820Y-80641979D01*
X163600000Y-80719591D01*
X163990181Y-80641979D01*
X164320960Y-80420960D01*
X164541979Y-80090181D01*
X164600000Y-79798490D01*
X164600000Y-78100001D01*
X169401509Y-78100001D01*
X169499999Y-78119592D01*
X169598489Y-78100001D01*
X169890180Y-78041980D01*
X170220959Y-77820961D01*
X170276753Y-77737459D01*
X176112052Y-71902161D01*
X191199470Y-71902161D01*
X191199470Y-72697759D01*
X191503932Y-73432795D01*
X192066505Y-73995368D01*
X192801541Y-74299830D01*
X193597139Y-74299830D01*
X194332175Y-73995368D01*
X194894748Y-73432795D01*
X195199210Y-72697759D01*
X195199210Y-71902161D01*
X194894748Y-71167125D01*
X194332175Y-70604552D01*
X193597139Y-70300090D01*
X192801541Y-70300090D01*
X192066505Y-70604552D01*
X191503932Y-71167125D01*
X191199470Y-71902161D01*
X176112052Y-71902161D01*
X176637464Y-71376750D01*
X176720960Y-71320960D01*
X176941979Y-70990181D01*
X177000000Y-70698490D01*
X177000000Y-70698489D01*
X177019591Y-70600000D01*
X177009417Y-70548852D01*
X177639569Y-70809870D01*
X178360391Y-70809870D01*
X179026344Y-70534023D01*
X179536043Y-70024324D01*
X179811890Y-69358371D01*
X179811890Y-68637549D01*
X180186030Y-68637549D01*
X180186030Y-69358371D01*
X180461877Y-70024324D01*
X180971576Y-70534023D01*
X181637529Y-70809870D01*
X182358351Y-70809870D01*
X183024304Y-70534023D01*
X183534003Y-70024324D01*
X183809850Y-69358371D01*
X183809850Y-68637549D01*
X183534003Y-67971596D01*
X183024304Y-67461897D01*
X182358351Y-67186050D01*
X181637529Y-67186050D01*
X180971576Y-67461897D01*
X180461877Y-67971596D01*
X180186030Y-68637549D01*
X179811890Y-68637549D01*
X179536043Y-67971596D01*
X179026344Y-67461897D01*
X178360391Y-67186050D01*
X178128163Y-67186050D01*
X178776749Y-66537464D01*
X178855756Y-66419223D01*
X178972596Y-66536063D01*
X179638549Y-66811910D01*
X180359371Y-66811910D01*
X181025324Y-66536063D01*
X181535023Y-66026364D01*
X181810870Y-65360411D01*
X181810870Y-64639589D01*
X181535023Y-63973636D01*
X181025324Y-63463937D01*
X180359371Y-63188090D01*
X179638549Y-63188090D01*
X178999980Y-63452594D01*
X178999980Y-62549023D01*
X179026344Y-62538103D01*
X179536043Y-62028404D01*
X179811890Y-61362451D01*
X179811890Y-60641629D01*
X180186030Y-60641629D01*
X180186030Y-61362451D01*
X180461877Y-62028404D01*
X180971576Y-62538103D01*
X181637529Y-62813950D01*
X182358351Y-62813950D01*
X183024304Y-62538103D01*
X183534003Y-62028404D01*
X183809850Y-61362451D01*
X183809850Y-60641629D01*
X183534003Y-59975676D01*
X183024304Y-59465977D01*
X182358351Y-59190130D01*
X181637529Y-59190130D01*
X180971576Y-59465977D01*
X180461877Y-59975676D01*
X180186030Y-60641629D01*
X179811890Y-60641629D01*
X179536043Y-59975676D01*
X179026344Y-59465977D01*
X178360391Y-59190130D01*
X177639569Y-59190130D01*
X176973616Y-59465977D01*
X176463917Y-59975676D01*
X176188070Y-60641629D01*
X176188070Y-61362451D01*
X176463917Y-62028404D01*
X176973616Y-62538103D01*
X176999981Y-62549024D01*
X176999980Y-63453646D01*
X176358871Y-63188090D01*
X175638049Y-63188090D01*
X174999480Y-63452594D01*
X174999480Y-62549023D01*
X175025844Y-62538103D01*
X175535543Y-62028404D01*
X175811390Y-61362451D01*
X175811390Y-60641629D01*
X175535543Y-59975676D01*
X175025844Y-59465977D01*
X174359891Y-59190130D01*
X173639069Y-59190130D01*
X172973116Y-59465977D01*
X172463417Y-59975676D01*
X172187570Y-60641629D01*
X172187570Y-61362451D01*
X172463417Y-62028404D01*
X172973116Y-62538103D01*
X172999480Y-62549024D01*
X172999480Y-63453646D01*
X172358371Y-63188090D01*
X171637549Y-63188090D01*
X170998980Y-63452594D01*
X170998980Y-62549023D01*
X171025344Y-62538103D01*
X171535043Y-62028404D01*
X171810890Y-61362451D01*
X171810890Y-60641629D01*
X171535043Y-59975676D01*
X171025344Y-59465977D01*
X170359391Y-59190130D01*
X169638569Y-59190130D01*
X168972616Y-59465977D01*
X168462917Y-59975676D01*
X168187070Y-60641629D01*
X168187070Y-61362451D01*
X168462917Y-62028404D01*
X168972616Y-62538103D01*
X168998980Y-62549024D01*
X168998980Y-63452594D01*
X168360411Y-63188090D01*
X167639589Y-63188090D01*
X167001020Y-63452594D01*
X167001020Y-62549023D01*
X167027384Y-62538103D01*
X167537083Y-62028404D01*
X167812930Y-61362451D01*
X167812930Y-60641629D01*
X167537083Y-59975676D01*
X167027384Y-59465977D01*
X166361431Y-59190130D01*
X165640609Y-59190130D01*
X164974656Y-59465977D01*
X164464957Y-59975676D01*
X164189110Y-60641629D01*
X164189110Y-61362451D01*
X164464957Y-62028404D01*
X164974656Y-62538103D01*
X165001020Y-62549024D01*
X165001020Y-63452594D01*
X164362451Y-63188090D01*
X163641629Y-63188090D01*
X162975676Y-63463937D01*
X162465977Y-63973636D01*
X162190130Y-64639589D01*
X162190130Y-65360411D01*
X162465977Y-66026364D01*
X162975676Y-66536063D01*
X163641629Y-66811910D01*
X163773878Y-66811910D01*
X163362542Y-67223246D01*
X163279040Y-67279040D01*
X163104798Y-67539811D01*
X163026884Y-67461897D01*
X162360931Y-67186050D01*
X161640109Y-67186050D01*
X160974156Y-67461897D01*
X160464457Y-67971596D01*
X160188610Y-68637549D01*
X160188610Y-69358371D01*
X160464457Y-70024324D01*
X160974156Y-70534023D01*
X161640109Y-70809870D01*
X162275917Y-70809870D01*
X161485788Y-71600000D01*
X160098490Y-71600000D01*
X160000000Y-71580409D01*
X159901510Y-71600000D01*
X159609819Y-71658021D01*
X159279040Y-71879040D01*
X159223248Y-71962539D01*
X154962540Y-76223248D01*
X154879041Y-76279040D01*
X154658021Y-76609819D01*
X154658021Y-76609820D01*
X154580409Y-77000000D01*
X131100000Y-77000000D01*
X131100000Y-71902161D01*
X140800790Y-71902161D01*
X140800790Y-72697759D01*
X141105252Y-73432795D01*
X141667825Y-73995368D01*
X142402861Y-74299830D01*
X143198459Y-74299830D01*
X143933495Y-73995368D01*
X144496068Y-73432795D01*
X144800530Y-72697759D01*
X144800530Y-71902161D01*
X144496068Y-71167125D01*
X143933495Y-70604552D01*
X143198459Y-70300090D01*
X142402861Y-70300090D01*
X141667825Y-70604552D01*
X141105252Y-71167125D01*
X140800790Y-71902161D01*
X131100000Y-71902161D01*
X131100000Y-71772792D01*
X131162983Y-71709809D01*
X131300000Y-71379021D01*
X131300000Y-71020979D01*
X131162983Y-70690191D01*
X130909809Y-70437017D01*
X130820442Y-70400000D01*
X134427208Y-70400000D01*
X134590191Y-70562983D01*
X134920979Y-70700000D01*
X135279021Y-70700000D01*
X135609809Y-70562983D01*
X135862983Y-70309809D01*
X136000000Y-69979021D01*
X136000000Y-69620979D01*
X135862983Y-69290191D01*
X135609809Y-69037017D01*
X135279021Y-68900000D01*
X134920979Y-68900000D01*
X134590191Y-69037017D01*
X134427208Y-69200000D01*
X130559086Y-69200000D01*
X130499999Y-69188247D01*
X130440913Y-69200000D01*
X130440909Y-69200000D01*
X130265892Y-69234813D01*
X130067425Y-69367425D01*
X130033953Y-69417519D01*
X129550000Y-69901473D01*
X129550000Y-68637549D01*
X152190150Y-68637549D01*
X152190150Y-69358371D01*
X152465997Y-70024324D01*
X152975696Y-70534023D01*
X153641649Y-70809870D01*
X154362471Y-70809870D01*
X155028424Y-70534023D01*
X155538123Y-70024324D01*
X155813970Y-69358371D01*
X155813970Y-68637549D01*
X156188110Y-68637549D01*
X156188110Y-69358371D01*
X156463957Y-70024324D01*
X156973656Y-70534023D01*
X157639609Y-70809870D01*
X158360431Y-70809870D01*
X159026384Y-70534023D01*
X159536083Y-70024324D01*
X159811930Y-69358371D01*
X159811930Y-68637549D01*
X159536083Y-67971596D01*
X159026384Y-67461897D01*
X158360431Y-67186050D01*
X157639609Y-67186050D01*
X156973656Y-67461897D01*
X156463957Y-67971596D01*
X156188110Y-68637549D01*
X155813970Y-68637549D01*
X155538123Y-67971596D01*
X155028424Y-67461897D01*
X154362471Y-67186050D01*
X153641649Y-67186050D01*
X152975696Y-67461897D01*
X152465997Y-67971596D01*
X152190150Y-68637549D01*
X129550000Y-68637549D01*
X129550000Y-64639589D01*
X154189130Y-64639589D01*
X154189130Y-65360411D01*
X154464977Y-66026364D01*
X154974676Y-66536063D01*
X155640629Y-66811910D01*
X156361451Y-66811910D01*
X157027404Y-66536063D01*
X157537103Y-66026364D01*
X157812950Y-65360411D01*
X157812950Y-64639589D01*
X158189630Y-64639589D01*
X158189630Y-65360411D01*
X158465477Y-66026364D01*
X158975176Y-66536063D01*
X159641129Y-66811910D01*
X160361951Y-66811910D01*
X161027904Y-66536063D01*
X161537603Y-66026364D01*
X161813450Y-65360411D01*
X161813450Y-64639589D01*
X161537603Y-63973636D01*
X161027904Y-63463937D01*
X160361951Y-63188090D01*
X159641129Y-63188090D01*
X158975176Y-63463937D01*
X158465477Y-63973636D01*
X158189630Y-64639589D01*
X157812950Y-64639589D01*
X157537103Y-63973636D01*
X157027404Y-63463937D01*
X156361451Y-63188090D01*
X155640629Y-63188090D01*
X154974676Y-63463937D01*
X154464977Y-63973636D01*
X154189130Y-64639589D01*
X129550000Y-64639589D01*
X129550000Y-59690130D01*
X152180355Y-59690130D01*
X152180355Y-62313950D01*
X152219161Y-62509040D01*
X152329670Y-62674430D01*
X152495060Y-62784939D01*
X152690150Y-62823745D01*
X155313970Y-62823745D01*
X155509060Y-62784939D01*
X155674450Y-62674430D01*
X155784959Y-62509040D01*
X155823765Y-62313950D01*
X155823765Y-60641629D01*
X156188110Y-60641629D01*
X156188110Y-61362451D01*
X156463957Y-62028404D01*
X156973656Y-62538103D01*
X157639609Y-62813950D01*
X158360431Y-62813950D01*
X159026384Y-62538103D01*
X159536083Y-62028404D01*
X159811930Y-61362451D01*
X159811930Y-60641629D01*
X160188610Y-60641629D01*
X160188610Y-61362451D01*
X160464457Y-62028404D01*
X160974156Y-62538103D01*
X161640109Y-62813950D01*
X162360931Y-62813950D01*
X163026884Y-62538103D01*
X163536583Y-62028404D01*
X163812430Y-61362451D01*
X163812430Y-60641629D01*
X163536583Y-59975676D01*
X163026884Y-59465977D01*
X162360931Y-59190130D01*
X161640109Y-59190130D01*
X160974156Y-59465977D01*
X160464457Y-59975676D01*
X160188610Y-60641629D01*
X159811930Y-60641629D01*
X159536083Y-59975676D01*
X159026384Y-59465977D01*
X158360431Y-59190130D01*
X157639609Y-59190130D01*
X156973656Y-59465977D01*
X156463957Y-59975676D01*
X156188110Y-60641629D01*
X155823765Y-60641629D01*
X155823765Y-59690130D01*
X155784959Y-59495040D01*
X155674450Y-59329650D01*
X155509060Y-59219141D01*
X155313970Y-59180335D01*
X152690150Y-59180335D01*
X152495060Y-59219141D01*
X152329670Y-59329650D01*
X152219161Y-59495040D01*
X152180355Y-59690130D01*
X129550000Y-59690130D01*
X129550000Y-53804661D01*
X142301930Y-53804661D01*
X142301930Y-54600259D01*
X142606392Y-55335295D01*
X143168965Y-55897868D01*
X143904001Y-56202330D01*
X144699599Y-56202330D01*
X145434635Y-55897868D01*
X145997208Y-55335295D01*
X146301670Y-54600259D01*
X146301670Y-53804661D01*
X189698330Y-53804661D01*
X189698330Y-54600259D01*
X190002792Y-55335295D01*
X190565365Y-55897868D01*
X191300401Y-56202330D01*
X192095999Y-56202330D01*
X192831035Y-55897868D01*
X193393608Y-55335295D01*
X193698070Y-54600259D01*
X193698070Y-53804661D01*
X193393608Y-53069625D01*
X192831035Y-52507052D01*
X192095999Y-52202590D01*
X191300401Y-52202590D01*
X190565365Y-52507052D01*
X190002792Y-53069625D01*
X189698330Y-53804661D01*
X146301670Y-53804661D01*
X145997208Y-53069625D01*
X145434635Y-52507052D01*
X144699599Y-52202590D01*
X143904001Y-52202590D01*
X143168965Y-52507052D01*
X142606392Y-53069625D01*
X142301930Y-53804661D01*
X129550000Y-53804661D01*
X129550000Y-51030746D01*
X129589396Y-50679522D01*
X129695454Y-50374966D01*
X129866348Y-50101478D01*
X130093585Y-49872648D01*
X130365876Y-49699848D01*
X130669681Y-49591668D01*
X131019122Y-49550000D01*
X204969254Y-49550000D01*
X205320478Y-49589396D01*
X205320478Y-49589396D01*
G37*
X205320478Y-49589396D02*
X205625034Y-49695454D01*
X205898522Y-49866348D01*
X206127352Y-50093585D01*
X206300152Y-50365876D01*
X206408332Y-50669681D01*
X206450001Y-51019131D01*
X206450000Y-136969253D01*
X206410604Y-137320479D01*
X206304547Y-137625033D01*
X206133652Y-137898522D01*
X205906415Y-138127352D01*
X205634124Y-138300152D01*
X205330323Y-138408331D01*
X204980877Y-138450000D01*
X131028678Y-138450000D01*
X130679521Y-138410836D01*
X130374967Y-138304779D01*
X130101478Y-138133884D01*
X129872648Y-137906647D01*
X129699848Y-137634356D01*
X129591669Y-137330555D01*
X129550000Y-136981109D01*
X129550000Y-121120979D01*
X135500000Y-121120979D01*
X135500000Y-121479021D01*
X135637017Y-121809809D01*
X135890191Y-122062983D01*
X136220979Y-122200000D01*
X136579021Y-122200000D01*
X136909809Y-122062983D01*
X137162983Y-121809809D01*
X137300000Y-121479021D01*
X137300000Y-121231666D01*
X137365186Y-121134109D01*
X137399999Y-120959092D01*
X137399999Y-120959088D01*
X137411752Y-120900002D01*
X137399999Y-120840915D01*
X137399999Y-120614006D01*
X138770607Y-119243399D01*
X138911923Y-119384715D01*
X138934813Y-119499792D01*
X139067425Y-119698260D01*
X139117521Y-119731733D01*
X139300001Y-119914213D01*
X139300000Y-122705200D01*
X139288247Y-122764286D01*
X139300000Y-122823372D01*
X139300000Y-122823376D01*
X139334813Y-122998393D01*
X139467425Y-123196861D01*
X139517522Y-123230335D01*
X142084952Y-125797766D01*
X141990191Y-125837017D01*
X141737017Y-126090191D01*
X141600000Y-126420979D01*
X141600000Y-126451472D01*
X140951473Y-127100000D01*
X140720979Y-127100000D01*
X140390191Y-127237017D01*
X140137017Y-127490191D01*
X140000000Y-127820979D01*
X140000000Y-128179021D01*
X140137017Y-128509809D01*
X140390191Y-128762983D01*
X140720979Y-128900000D01*
X141079021Y-128900000D01*
X141409809Y-128762983D01*
X141662983Y-128509809D01*
X141800000Y-128179021D01*
X141800000Y-127948527D01*
X142269748Y-127478779D01*
X142320979Y-127500000D01*
X142679021Y-127500000D01*
X143009809Y-127362983D01*
X143262983Y-127109809D01*
X143302234Y-127015048D01*
X145200001Y-128912815D01*
X145200000Y-134327208D01*
X145037017Y-134490191D01*
X144900000Y-134820979D01*
X144900000Y-135179021D01*
X145037017Y-135509809D01*
X145290191Y-135762983D01*
X145620979Y-135900000D01*
X145979021Y-135900000D01*
X146309809Y-135762983D01*
X146551813Y-135520979D01*
X157500000Y-135520979D01*
X157500000Y-135879021D01*
X157637017Y-136209809D01*
X157890191Y-136462983D01*
X158220979Y-136600000D01*
X158350111Y-136600000D01*
X158300000Y-136720979D01*
X158300000Y-137079021D01*
X158437017Y-137409809D01*
X158690191Y-137662983D01*
X159020979Y-137800000D01*
X159379021Y-137800000D01*
X159709809Y-137662983D01*
X159962983Y-137409809D01*
X160100000Y-137079021D01*
X160100000Y-136989948D01*
X167187787Y-129902161D01*
X181199490Y-129902161D01*
X181199490Y-130697759D01*
X181503952Y-131432795D01*
X182066525Y-131995368D01*
X182801561Y-132299830D01*
X183597159Y-132299830D01*
X184332195Y-131995368D01*
X184894768Y-131432795D01*
X185199230Y-130697759D01*
X185199230Y-129902161D01*
X184894768Y-129167125D01*
X184332195Y-128604552D01*
X183597159Y-128300090D01*
X182801561Y-128300090D01*
X182066525Y-128604552D01*
X181503952Y-129167125D01*
X181199490Y-129902161D01*
X167187787Y-129902161D01*
X167289949Y-129800000D01*
X168831065Y-129800000D01*
X168900000Y-129813712D01*
X168968935Y-129800000D01*
X168968940Y-129800000D01*
X169173126Y-129759385D01*
X169404671Y-129604671D01*
X169443724Y-129546224D01*
X170445211Y-128544739D01*
X170503650Y-128505691D01*
X170542698Y-128447252D01*
X170542702Y-128447248D01*
X170658364Y-128274147D01*
X170658365Y-128274146D01*
X170667217Y-128229644D01*
X170971596Y-128534023D01*
X171637549Y-128809870D01*
X172358371Y-128809870D01*
X173024324Y-128534023D01*
X173534023Y-128024324D01*
X173809870Y-127358371D01*
X173809870Y-126637549D01*
X173534023Y-125971596D01*
X173024324Y-125461897D01*
X172358371Y-125186050D01*
X171637549Y-125186050D01*
X170971596Y-125461897D01*
X170698980Y-125734513D01*
X170698980Y-124671248D01*
X171025344Y-124536063D01*
X171535043Y-124026364D01*
X171810890Y-123360411D01*
X171810890Y-122639589D01*
X171535043Y-121973636D01*
X171025344Y-121463937D01*
X170359391Y-121188090D01*
X169638569Y-121188090D01*
X168972616Y-121463937D01*
X168462917Y-121973636D01*
X168187070Y-122639589D01*
X168187070Y-123360411D01*
X168462917Y-124026364D01*
X168972616Y-124536063D01*
X169298981Y-124671248D01*
X169298980Y-125734513D01*
X169026364Y-125461897D01*
X168360411Y-125186050D01*
X167639589Y-125186050D01*
X166973636Y-125461897D01*
X166701020Y-125734513D01*
X166701020Y-124671248D01*
X167027384Y-124536063D01*
X167537083Y-124026364D01*
X167812930Y-123360411D01*
X167812930Y-122639589D01*
X167537083Y-121973636D01*
X167027384Y-121463937D01*
X166361431Y-121188090D01*
X165640609Y-121188090D01*
X164974656Y-121463937D01*
X164464957Y-121973636D01*
X164189110Y-122639589D01*
X164189110Y-123360411D01*
X164464957Y-124026364D01*
X164974656Y-124536063D01*
X165301021Y-124671248D01*
X165301021Y-125734514D01*
X165028404Y-125461897D01*
X164362451Y-125186050D01*
X163641629Y-125186050D01*
X162975676Y-125461897D01*
X162465977Y-125971596D01*
X162190130Y-126637549D01*
X162190130Y-127358371D01*
X162465977Y-128024324D01*
X162975676Y-128534023D01*
X163641629Y-128809870D01*
X164362451Y-128809870D01*
X165028404Y-128534023D01*
X165301020Y-128261407D01*
X165301020Y-128709030D01*
X159010052Y-135000000D01*
X158972792Y-135000000D01*
X158909809Y-134937017D01*
X158579021Y-134800000D01*
X158220979Y-134800000D01*
X157890191Y-134937017D01*
X157637017Y-135190191D01*
X157500000Y-135520979D01*
X146551813Y-135520979D01*
X146562983Y-135509809D01*
X146624944Y-135360221D01*
X146720979Y-135400000D01*
X147079021Y-135400000D01*
X147409809Y-135262983D01*
X147662983Y-135009809D01*
X147800000Y-134679021D01*
X147800000Y-134320979D01*
X147662983Y-133990191D01*
X147409809Y-133737017D01*
X147079021Y-133600000D01*
X146848527Y-133600000D01*
X146800000Y-133551473D01*
X146800000Y-129902161D01*
X150800770Y-129902161D01*
X150800770Y-130697759D01*
X151105232Y-131432795D01*
X151667805Y-131995368D01*
X152402841Y-132299830D01*
X153198439Y-132299830D01*
X153933475Y-131995368D01*
X154496048Y-131432795D01*
X154800510Y-130697759D01*
X154800510Y-129902161D01*
X154496048Y-129167125D01*
X153933475Y-128604552D01*
X153198439Y-128300090D01*
X152402841Y-128300090D01*
X151667805Y-128604552D01*
X151105232Y-129167125D01*
X150800770Y-129902161D01*
X146800000Y-129902161D01*
X146800000Y-128559086D01*
X146811753Y-128499999D01*
X146800000Y-128440913D01*
X146800000Y-128440909D01*
X146765187Y-128265892D01*
X146632575Y-128067425D01*
X146582481Y-128033953D01*
X143428299Y-124879772D01*
X143515077Y-124897033D01*
X143515080Y-124897033D01*
X143574168Y-124908786D01*
X143633256Y-124897033D01*
X155208167Y-124897033D01*
X155267253Y-124908786D01*
X155326339Y-124897033D01*
X155326344Y-124897033D01*
X155501361Y-124862220D01*
X155699828Y-124729608D01*
X155733302Y-124679511D01*
X162180335Y-118232478D01*
X162180335Y-120313950D01*
X162219141Y-120509040D01*
X162329650Y-120674430D01*
X162495040Y-120784939D01*
X162690130Y-120823745D01*
X165313950Y-120823745D01*
X165509040Y-120784939D01*
X165674430Y-120674430D01*
X165784939Y-120509040D01*
X165823745Y-120313950D01*
X165823745Y-120223496D01*
X166785615Y-120223496D01*
X166918170Y-120499556D01*
X167573595Y-120799563D01*
X168293936Y-120825913D01*
X168969527Y-120574595D01*
X169081830Y-120499556D01*
X169214385Y-120223496D01*
X168000000Y-119009111D01*
X166785615Y-120223496D01*
X165823745Y-120223496D01*
X165823745Y-119295976D01*
X166176127Y-119295976D01*
X166427445Y-119971567D01*
X166502484Y-120083870D01*
X166778544Y-120216425D01*
X167992929Y-119002040D01*
X168007071Y-119002040D01*
X169221456Y-120216425D01*
X169497516Y-120083870D01*
X169797523Y-119428445D01*
X169823873Y-118708104D01*
X169799145Y-118641629D01*
X170186050Y-118641629D01*
X170186050Y-119362451D01*
X170461897Y-120028404D01*
X170971596Y-120538103D01*
X171637549Y-120813950D01*
X172358371Y-120813950D01*
X173024324Y-120538103D01*
X173534023Y-120028404D01*
X173809870Y-119362451D01*
X173809870Y-118641629D01*
X173534023Y-117975676D01*
X173024324Y-117465977D01*
X172358371Y-117190130D01*
X171637549Y-117190130D01*
X170971596Y-117465977D01*
X170461897Y-117975676D01*
X170186050Y-118641629D01*
X169799145Y-118641629D01*
X169572555Y-118032513D01*
X169497516Y-117920210D01*
X169221456Y-117787655D01*
X168007071Y-119002040D01*
X167992929Y-119002040D01*
X166778544Y-117787655D01*
X166502484Y-117920210D01*
X166202477Y-118575635D01*
X166176127Y-119295976D01*
X165823745Y-119295976D01*
X165823745Y-117780584D01*
X166785615Y-117780584D01*
X168000000Y-118994969D01*
X169214385Y-117780584D01*
X169081830Y-117504524D01*
X168426405Y-117204517D01*
X167706064Y-117178167D01*
X167030473Y-117429485D01*
X166918170Y-117504524D01*
X166785615Y-117780584D01*
X165823745Y-117780584D01*
X165823745Y-117690130D01*
X165784939Y-117495040D01*
X165674430Y-117329650D01*
X165509040Y-117219141D01*
X165313950Y-117180335D01*
X163232479Y-117180335D01*
X168608153Y-111804661D01*
X179698350Y-111804661D01*
X179698350Y-112600259D01*
X180002812Y-113335295D01*
X180565385Y-113897868D01*
X181300421Y-114202330D01*
X182096019Y-114202330D01*
X182831055Y-113897868D01*
X183393628Y-113335295D01*
X183698090Y-112600259D01*
X183698090Y-111804661D01*
X183393628Y-111069625D01*
X182831055Y-110507052D01*
X182096019Y-110202590D01*
X181300421Y-110202590D01*
X180565385Y-110507052D01*
X180002812Y-111069625D01*
X179698350Y-111804661D01*
X168608153Y-111804661D01*
X170417759Y-109995055D01*
X182495861Y-109995055D01*
X182554947Y-110006808D01*
X182614033Y-109995055D01*
X182614038Y-109995055D01*
X182789055Y-109960242D01*
X182987522Y-109827630D01*
X183020996Y-109777533D01*
X194748528Y-98050002D01*
X194979021Y-98050002D01*
X195309809Y-97912985D01*
X195562983Y-97659811D01*
X195700000Y-97329023D01*
X195700000Y-96970981D01*
X195562983Y-96640193D01*
X195309809Y-96387019D01*
X194979021Y-96250002D01*
X194620979Y-96250002D01*
X194290191Y-96387019D01*
X194037017Y-96640193D01*
X193900000Y-96970981D01*
X193900000Y-97201474D01*
X182306420Y-108795055D01*
X179937994Y-108795055D01*
X194682481Y-94050569D01*
X194732575Y-94017097D01*
X194865187Y-93818630D01*
X194900000Y-93643613D01*
X194900000Y-93643609D01*
X194911753Y-93584523D01*
X194907857Y-93564935D01*
X195062983Y-93409809D01*
X195200000Y-93079021D01*
X195200000Y-92720979D01*
X195062983Y-92390191D01*
X194809809Y-92137017D01*
X194479021Y-92000000D01*
X194120979Y-92000000D01*
X193790191Y-92137017D01*
X193695937Y-92231271D01*
X193379021Y-92100000D01*
X193020979Y-92100000D01*
X192690191Y-92237017D01*
X192437017Y-92490191D01*
X192300000Y-92820979D01*
X192300000Y-93051472D01*
X189650475Y-95700998D01*
X188923563Y-95700998D01*
X188864477Y-95689245D01*
X188805391Y-95700998D01*
X188805387Y-95700998D01*
X188630370Y-95735811D01*
X188431903Y-95868423D01*
X188398431Y-95918517D01*
X187117522Y-97199427D01*
X187067425Y-97232901D01*
X186934813Y-97431369D01*
X186900000Y-97606386D01*
X186900000Y-97606390D01*
X186888247Y-97665476D01*
X186900000Y-97724562D01*
X186900000Y-98151471D01*
X185700000Y-99351471D01*
X185700000Y-96847335D01*
X188282481Y-94264855D01*
X188332575Y-94231383D01*
X188465187Y-94032916D01*
X188500000Y-93857899D01*
X188500000Y-93857895D01*
X188511753Y-93798808D01*
X188500000Y-93739722D01*
X188500000Y-93672792D01*
X188662983Y-93509809D01*
X188800000Y-93179021D01*
X188800000Y-92820979D01*
X188662983Y-92490191D01*
X188409809Y-92237017D01*
X188079021Y-92100000D01*
X187720979Y-92100000D01*
X187390191Y-92237017D01*
X187350000Y-92277208D01*
X187309809Y-92237017D01*
X186979021Y-92100000D01*
X186620979Y-92100000D01*
X186290191Y-92237017D01*
X186037017Y-92490191D01*
X185900000Y-92820979D01*
X185900000Y-93179021D01*
X186037017Y-93509809D01*
X186200001Y-93672793D01*
X186200001Y-94085993D01*
X184317522Y-95968473D01*
X184267425Y-96001947D01*
X184134813Y-96200415D01*
X184100000Y-96375432D01*
X184100000Y-96375436D01*
X184088247Y-96434522D01*
X184100000Y-96493608D01*
X184100001Y-99751471D01*
X177051473Y-106800000D01*
X169359088Y-106800000D01*
X169300000Y-106788247D01*
X169240912Y-106800000D01*
X169240909Y-106800000D01*
X169065892Y-106834813D01*
X168867425Y-106967425D01*
X168833953Y-107017519D01*
X154848496Y-121002977D01*
X148213880Y-121002977D01*
X148154794Y-120991224D01*
X148095708Y-121002977D01*
X148095703Y-121002977D01*
X148054797Y-121011114D01*
X147777082Y-120896080D01*
X147419040Y-120896080D01*
X147088252Y-121033097D01*
X146835078Y-121286271D01*
X146698061Y-121617059D01*
X146698061Y-121975101D01*
X146835078Y-122305889D01*
X147029189Y-122500000D01*
X146048528Y-122500000D01*
X143400000Y-119851473D01*
X143400000Y-119620979D01*
X143262983Y-119290191D01*
X143009809Y-119037017D01*
X142679021Y-118900000D01*
X142320979Y-118900000D01*
X141990191Y-119037017D01*
X141737017Y-119290191D01*
X141600000Y-119620979D01*
X141600000Y-119979021D01*
X141737017Y-120309809D01*
X141990191Y-120562983D01*
X142320979Y-120700000D01*
X142551473Y-120700000D01*
X142929827Y-121078354D01*
X142788203Y-121137017D01*
X142535029Y-121390191D01*
X142513234Y-121442809D01*
X142496825Y-121431845D01*
X142321808Y-121397032D01*
X142321803Y-121397032D01*
X142262717Y-121385279D01*
X142203631Y-121397032D01*
X141972792Y-121397032D01*
X141809809Y-121234049D01*
X141479021Y-121097032D01*
X141120979Y-121097032D01*
X140900000Y-121188565D01*
X140900000Y-118572792D01*
X141062983Y-118409809D01*
X141200000Y-118079021D01*
X141200000Y-117800999D01*
X147010499Y-117800999D01*
X147010500Y-118393774D01*
X146700691Y-118522101D01*
X146447517Y-118775275D01*
X146310500Y-119106063D01*
X146310500Y-119464105D01*
X146447517Y-119794893D01*
X146700691Y-120048067D01*
X147031479Y-120185084D01*
X147389521Y-120185084D01*
X147720309Y-120048067D01*
X147973483Y-119794893D01*
X148110500Y-119464105D01*
X148110500Y-119216750D01*
X148175685Y-119119194D01*
X148175686Y-119119193D01*
X148210499Y-118944176D01*
X148210499Y-118944172D01*
X148222252Y-118885086D01*
X148210499Y-118825999D01*
X148210499Y-117938028D01*
X150347538Y-115800991D01*
X150551871Y-115800991D01*
X150461978Y-116018011D01*
X150461978Y-116376053D01*
X150598995Y-116706841D01*
X150852169Y-116960015D01*
X151182957Y-117097032D01*
X151540999Y-117097032D01*
X151871787Y-116960015D01*
X152124961Y-116706841D01*
X152261978Y-116376053D01*
X152261978Y-116200000D01*
X155840914Y-116200000D01*
X155900000Y-116211753D01*
X155959086Y-116200000D01*
X155959091Y-116200000D01*
X156134108Y-116165187D01*
X156332575Y-116032575D01*
X156366049Y-115982478D01*
X167248529Y-105100000D01*
X176005200Y-105100000D01*
X176064286Y-105111753D01*
X176123372Y-105100000D01*
X176123377Y-105100000D01*
X176298394Y-105065187D01*
X176496861Y-104932575D01*
X176530335Y-104882478D01*
X182881491Y-98531323D01*
X182931585Y-98497851D01*
X183064197Y-98299384D01*
X183099010Y-98124367D01*
X183099010Y-98124363D01*
X183110763Y-98065276D01*
X183099010Y-98006190D01*
X183099010Y-94758095D01*
X183110763Y-94699009D01*
X183099010Y-94639923D01*
X183099010Y-94639919D01*
X183064197Y-94464902D01*
X182931585Y-94266435D01*
X182881492Y-94232964D01*
X182210660Y-93562132D01*
X182262983Y-93509809D01*
X182400000Y-93179021D01*
X182400000Y-92820979D01*
X182262983Y-92490191D01*
X182009809Y-92237017D01*
X181679021Y-92100000D01*
X181320979Y-92100000D01*
X180990191Y-92237017D01*
X180859600Y-92367608D01*
X180709809Y-92217817D01*
X180379021Y-92080800D01*
X180020979Y-92080800D01*
X179690191Y-92217817D01*
X179437017Y-92470991D01*
X179300000Y-92801779D01*
X179300000Y-93159821D01*
X179437017Y-93490609D01*
X179690191Y-93743783D01*
X180020979Y-93880800D01*
X180251473Y-93880800D01*
X181500000Y-95129328D01*
X181500000Y-96208690D01*
X181479021Y-96200000D01*
X181120979Y-96200000D01*
X180790191Y-96337017D01*
X180537017Y-96590191D01*
X180400000Y-96920979D01*
X180400000Y-97279021D01*
X180537017Y-97609809D01*
X180700001Y-97772793D01*
X180700001Y-97880043D01*
X178700000Y-99880044D01*
X178700000Y-90648527D01*
X183248528Y-86100000D01*
X197440914Y-86100000D01*
X197500000Y-86111753D01*
X197559086Y-86100000D01*
X197559091Y-86100000D01*
X197734108Y-86065187D01*
X197932575Y-85932575D01*
X197966049Y-85882478D01*
X202780193Y-81068335D01*
X203037267Y-81068335D01*
X203200250Y-81231318D01*
X203531038Y-81368335D01*
X203889080Y-81368335D01*
X204219868Y-81231318D01*
X204473042Y-80978144D01*
X204610059Y-80647356D01*
X204610059Y-80289314D01*
X204473042Y-79958526D01*
X204219868Y-79705352D01*
X203889080Y-79568335D01*
X203531038Y-79568335D01*
X203200250Y-79705352D01*
X203037267Y-79868335D01*
X202590751Y-79868335D01*
X202531665Y-79856582D01*
X202472578Y-79868335D01*
X202472574Y-79868335D01*
X202297557Y-79903148D01*
X202099090Y-80035760D01*
X202065618Y-80085854D01*
X201958082Y-80193390D01*
X201761484Y-79996792D01*
X201430696Y-79859775D01*
X201072654Y-79859775D01*
X200741866Y-79996792D01*
X200488692Y-80249966D01*
X200351675Y-80580754D01*
X200351675Y-80938796D01*
X200398831Y-81052641D01*
X197051473Y-84400000D01*
X182994800Y-84400000D01*
X182935713Y-84388247D01*
X182876627Y-84400000D01*
X182876623Y-84400000D01*
X182701606Y-84434813D01*
X182503139Y-84567425D01*
X182469667Y-84617519D01*
X177318511Y-89768676D01*
X177268414Y-89802150D01*
X177135802Y-90000618D01*
X177100989Y-90175635D01*
X177100989Y-90175639D01*
X177089236Y-90234725D01*
X177100989Y-90293811D01*
X177100990Y-96578198D01*
X176859809Y-96337017D01*
X176529021Y-96200000D01*
X176170979Y-96200000D01*
X175840191Y-96337017D01*
X175700000Y-96477208D01*
X175700000Y-93672792D01*
X175862983Y-93509809D01*
X176000000Y-93179021D01*
X176000000Y-92820979D01*
X175862983Y-92490191D01*
X175609809Y-92237017D01*
X175279021Y-92100000D01*
X174920979Y-92100000D01*
X174590191Y-92237017D01*
X174346724Y-92480484D01*
X174199719Y-92419593D01*
X173841677Y-92419593D01*
X173510889Y-92556610D01*
X173257715Y-92809784D01*
X173120698Y-93140572D01*
X173120698Y-93498614D01*
X173257715Y-93829402D01*
X173420699Y-93992386D01*
X173420698Y-97302202D01*
X172020923Y-98701978D01*
X165953692Y-98701978D01*
X166355671Y-98299999D01*
X169490915Y-98299999D01*
X169550001Y-98311752D01*
X169609087Y-98299999D01*
X169609092Y-98299999D01*
X169784109Y-98265186D01*
X169982576Y-98132574D01*
X170016050Y-98082477D01*
X170148527Y-97950000D01*
X170379021Y-97950000D01*
X170709809Y-97812983D01*
X170962983Y-97559809D01*
X171100000Y-97229021D01*
X171100000Y-96870979D01*
X170962983Y-96540191D01*
X170709809Y-96287017D01*
X170379021Y-96150000D01*
X170020979Y-96150000D01*
X169690191Y-96287017D01*
X169437017Y-96540191D01*
X169300000Y-96870979D01*
X169300000Y-97099999D01*
X166400000Y-97099999D01*
X166400000Y-96429327D01*
X168748528Y-94080800D01*
X168979021Y-94080800D01*
X169309809Y-93943783D01*
X169562983Y-93690609D01*
X169700000Y-93359821D01*
X169700000Y-93001779D01*
X169562983Y-92670991D01*
X169309809Y-92417817D01*
X168979021Y-92280800D01*
X168620979Y-92280800D01*
X168290191Y-92417817D01*
X168087851Y-92620157D01*
X168057344Y-92589650D01*
X167726556Y-92452633D01*
X167368514Y-92452633D01*
X167037726Y-92589650D01*
X166784552Y-92842824D01*
X166647535Y-93173612D01*
X166647535Y-93404105D01*
X165017522Y-95034119D01*
X164967425Y-95067593D01*
X164834813Y-95266061D01*
X164800000Y-95441078D01*
X164800000Y-95441082D01*
X164788247Y-95500168D01*
X164800000Y-95559255D01*
X164800001Y-96951471D01*
X164400000Y-97351472D01*
X164400000Y-97006965D01*
X164262983Y-96676177D01*
X164009809Y-96423003D01*
X163679021Y-96285986D01*
X163320979Y-96285986D01*
X163000000Y-96418940D01*
X163000000Y-93853592D01*
X163162983Y-93690609D01*
X163300000Y-93359821D01*
X163300000Y-93001779D01*
X163162983Y-92670991D01*
X162909809Y-92417817D01*
X162579021Y-92280800D01*
X162220979Y-92280800D01*
X161890191Y-92417817D01*
X161779312Y-92528696D01*
X161466348Y-92399062D01*
X161108306Y-92399062D01*
X160777518Y-92536079D01*
X160524344Y-92789253D01*
X160387327Y-93120041D01*
X160387327Y-93478083D01*
X160524344Y-93808871D01*
X160699250Y-93983777D01*
X160722140Y-94098854D01*
X160854752Y-94297322D01*
X160904848Y-94330795D01*
X161400001Y-94825949D01*
X161400000Y-96122899D01*
X157420923Y-100101978D01*
X156526529Y-100101978D01*
X156630397Y-100032575D01*
X156663871Y-99982479D01*
X157479507Y-99166843D01*
X157529600Y-99133372D01*
X157662212Y-98934905D01*
X157697025Y-98759888D01*
X157697025Y-98759884D01*
X157708778Y-98700798D01*
X157697025Y-98641711D01*
X157697025Y-94086213D01*
X157708778Y-94027125D01*
X157697025Y-93968037D01*
X157697025Y-93968034D01*
X157662212Y-93793017D01*
X157662212Y-93793016D01*
X157563072Y-93644644D01*
X157529600Y-93594550D01*
X157479506Y-93561078D01*
X157069900Y-93151473D01*
X157069900Y-92920979D01*
X156932883Y-92590191D01*
X156679709Y-92337017D01*
X156348921Y-92200000D01*
X155990879Y-92200000D01*
X155660091Y-92337017D01*
X155609513Y-92387595D01*
X155279021Y-92250700D01*
X154920979Y-92250700D01*
X154590191Y-92387717D01*
X154337017Y-92640891D01*
X154200000Y-92971679D01*
X154200000Y-93329721D01*
X154337017Y-93660509D01*
X154590191Y-93913683D01*
X154920979Y-94050700D01*
X155151473Y-94050700D01*
X156098022Y-94997250D01*
X156098022Y-96400000D01*
X155770979Y-96400000D01*
X155440191Y-96537017D01*
X155265286Y-96711922D01*
X155150207Y-96734813D01*
X154951740Y-96867425D01*
X154918266Y-96917522D01*
X154786902Y-97048886D01*
X153321650Y-97048886D01*
X153262563Y-97037133D01*
X153203477Y-97048886D01*
X153203473Y-97048886D01*
X153028456Y-97083699D01*
X152924127Y-97153410D01*
X152905445Y-97165893D01*
X152829989Y-97216311D01*
X152796517Y-97266405D01*
X151303167Y-98759755D01*
X151308778Y-98731548D01*
X151297025Y-98672461D01*
X151297025Y-94256113D01*
X151308778Y-94197025D01*
X151297025Y-94137937D01*
X151297025Y-94137934D01*
X151262212Y-93962917D01*
X151195393Y-93862916D01*
X151163072Y-93814544D01*
X151129600Y-93764450D01*
X151079506Y-93730978D01*
X150500000Y-93151473D01*
X150500000Y-92920979D01*
X150362983Y-92590191D01*
X150109809Y-92337017D01*
X149779021Y-92200000D01*
X149420979Y-92200000D01*
X149090191Y-92337017D01*
X148859600Y-92567608D01*
X148609809Y-92317817D01*
X148279021Y-92180800D01*
X147920979Y-92180800D01*
X147590191Y-92317817D01*
X147337017Y-92570991D01*
X147200000Y-92901779D01*
X147200000Y-93259821D01*
X147337017Y-93590609D01*
X147590191Y-93843783D01*
X147920979Y-93980800D01*
X148151473Y-93980800D01*
X149698018Y-95527346D01*
X149698018Y-96370001D01*
X149529021Y-96300000D01*
X149170979Y-96300000D01*
X148840191Y-96437017D01*
X148587017Y-96690191D01*
X148450000Y-97020979D01*
X148450000Y-97088685D01*
X139649591Y-105889095D01*
X139419097Y-105889095D01*
X139200000Y-105979848D01*
X139200000Y-104248527D01*
X144579506Y-98869022D01*
X144629600Y-98835550D01*
X144726704Y-98690225D01*
X144762212Y-98637083D01*
X144775271Y-98571430D01*
X144797025Y-98462066D01*
X144797025Y-98462063D01*
X144808778Y-98402975D01*
X144797025Y-98343887D01*
X144797025Y-94156111D01*
X144808778Y-94097025D01*
X144797025Y-94037938D01*
X144797025Y-94037934D01*
X144762212Y-93862917D01*
X144629600Y-93664450D01*
X144579507Y-93630979D01*
X143900000Y-92951473D01*
X143900000Y-92720979D01*
X143762983Y-92390191D01*
X143509809Y-92137017D01*
X143179021Y-92000000D01*
X142820979Y-92000000D01*
X142490191Y-92137017D01*
X142359600Y-92267608D01*
X142309809Y-92217817D01*
X141979021Y-92080800D01*
X141620979Y-92080800D01*
X141290191Y-92217817D01*
X141037017Y-92470991D01*
X140900000Y-92801779D01*
X140900000Y-93159821D01*
X141037017Y-93490609D01*
X141290191Y-93743783D01*
X141620979Y-93880800D01*
X141851473Y-93880800D01*
X143198015Y-95227343D01*
X143198015Y-96369997D01*
X143029027Y-96300000D01*
X142670985Y-96300000D01*
X142340197Y-96437017D01*
X142179899Y-96597315D01*
X142134313Y-96588247D01*
X142075225Y-96600000D01*
X142075222Y-96600000D01*
X141942000Y-96626499D01*
X141900204Y-96634813D01*
X141752401Y-96733573D01*
X141701738Y-96767425D01*
X141668266Y-96817519D01*
X136517519Y-101968267D01*
X136467425Y-102001739D01*
X136433953Y-102051833D01*
X136433952Y-102051834D01*
X136334813Y-102200206D01*
X136288246Y-102434314D01*
X136300000Y-102493405D01*
X136299999Y-113508690D01*
X135990191Y-113637017D01*
X135737017Y-113890191D01*
X135600000Y-114220979D01*
X135600000Y-114579021D01*
X135737017Y-114909809D01*
X135990191Y-115162983D01*
X136320979Y-115300000D01*
X136679021Y-115300000D01*
X137009809Y-115162983D01*
X137262983Y-114909809D01*
X137268878Y-114895576D01*
X137520979Y-115000000D01*
X137879021Y-115000000D01*
X138209809Y-114862983D01*
X138400000Y-114672792D01*
X138590191Y-114862983D01*
X138920979Y-115000000D01*
X139279021Y-115000000D01*
X139609809Y-114862983D01*
X139750000Y-114722792D01*
X139990191Y-114962983D01*
X140320979Y-115100000D01*
X140679021Y-115100000D01*
X141009809Y-114962983D01*
X141262983Y-114709809D01*
X141400000Y-114379021D01*
X141400000Y-114148527D01*
X142483481Y-113065047D01*
X142533574Y-113031576D01*
X142666186Y-112833109D01*
X142700999Y-112658092D01*
X142700999Y-112658088D01*
X142712752Y-112599002D01*
X142700999Y-112539916D01*
X142700999Y-111700000D01*
X142851472Y-111700000D01*
X142933953Y-111782481D01*
X142967425Y-111832575D01*
X143165892Y-111965187D01*
X143340909Y-112000000D01*
X143340913Y-112000000D01*
X143399999Y-112011753D01*
X143459086Y-112000000D01*
X144440914Y-112000000D01*
X144500000Y-112011753D01*
X144559086Y-112000000D01*
X144559091Y-112000000D01*
X144734108Y-111965187D01*
X144932575Y-111832575D01*
X144966049Y-111782478D01*
X154648528Y-102100000D01*
X159126900Y-102100000D01*
X159185986Y-102111753D01*
X159245072Y-102100000D01*
X159245077Y-102100000D01*
X159420094Y-102065187D01*
X159618561Y-101932575D01*
X159652035Y-101882478D01*
X163448528Y-98085986D01*
X163665486Y-98085986D01*
X158951473Y-102800000D01*
X155259088Y-102800000D01*
X155200000Y-102788247D01*
X155140912Y-102800000D01*
X155140909Y-102800000D01*
X155007687Y-102826499D01*
X154965891Y-102834813D01*
X154837669Y-102920489D01*
X154767425Y-102967425D01*
X154733953Y-103017519D01*
X145612132Y-112139340D01*
X145609809Y-112137017D01*
X145279021Y-112000000D01*
X144920979Y-112000000D01*
X144590191Y-112137017D01*
X144337017Y-112390191D01*
X144200000Y-112720979D01*
X144200000Y-113079021D01*
X144264834Y-113235545D01*
X144179021Y-113200000D01*
X143820979Y-113200000D01*
X143490191Y-113337017D01*
X143237017Y-113590191D01*
X143156754Y-113783962D01*
X143009809Y-113637017D01*
X142679021Y-113500000D01*
X142320979Y-113500000D01*
X141990191Y-113637017D01*
X141737017Y-113890191D01*
X141600000Y-114220979D01*
X141600000Y-114579021D01*
X141737017Y-114909809D01*
X141990191Y-115162983D01*
X142320979Y-115300000D01*
X142568334Y-115300000D01*
X142665891Y-115365186D01*
X142840908Y-115399999D01*
X142840912Y-115399999D01*
X142899998Y-115411752D01*
X142959085Y-115399999D01*
X144869487Y-115399999D01*
X144928573Y-115411752D01*
X144987659Y-115399999D01*
X144987664Y-115399999D01*
X145162681Y-115365186D01*
X145361148Y-115232574D01*
X145394622Y-115182477D01*
X146587305Y-113989794D01*
X146637017Y-114109809D01*
X146890191Y-114362983D01*
X147220979Y-114500000D01*
X147579021Y-114500000D01*
X147909809Y-114362983D01*
X148145484Y-114127308D01*
X148320979Y-114200000D01*
X148558614Y-114200000D01*
X147258615Y-115500000D01*
X139972792Y-115500000D01*
X139809809Y-115337017D01*
X139479021Y-115200000D01*
X139120979Y-115200000D01*
X138790191Y-115337017D01*
X138537017Y-115590191D01*
X138400000Y-115920979D01*
X138400000Y-116279021D01*
X138491533Y-116500000D01*
X138472792Y-116500000D01*
X138309809Y-116337017D01*
X137979021Y-116200000D01*
X137620979Y-116200000D01*
X137290191Y-116337017D01*
X137037017Y-116590191D01*
X136900000Y-116920979D01*
X136900000Y-117279021D01*
X137037017Y-117609809D01*
X137290191Y-117862983D01*
X137620979Y-118000000D01*
X137979021Y-118000000D01*
X138309809Y-117862983D01*
X138472792Y-117700000D01*
X138616950Y-117700000D01*
X136417521Y-119899430D01*
X136367424Y-119932904D01*
X136234812Y-120131372D01*
X136199999Y-120306389D01*
X136199999Y-120306393D01*
X136188246Y-120365479D01*
X136197082Y-120409899D01*
X135890191Y-120537017D01*
X135637017Y-120790191D01*
X135500000Y-121120979D01*
X129550000Y-121120979D01*
X129550000Y-118298527D01*
X130333953Y-119082481D01*
X130367425Y-119132575D01*
X130565892Y-119265187D01*
X130740909Y-119300000D01*
X130740913Y-119300000D01*
X130799999Y-119311753D01*
X130859086Y-119300000D01*
X131527208Y-119300000D01*
X131690191Y-119462983D01*
X132020979Y-119600000D01*
X132379021Y-119600000D01*
X132709809Y-119462983D01*
X132962983Y-119209809D01*
X133100000Y-118879021D01*
X133100000Y-118520979D01*
X132962983Y-118190191D01*
X132709809Y-117937017D01*
X132379021Y-117800000D01*
X132020979Y-117800000D01*
X131690191Y-117937017D01*
X131527208Y-118100000D01*
X131048528Y-118100000D01*
X130200000Y-117251473D01*
X130200000Y-111020979D01*
X132000000Y-111020979D01*
X132000000Y-111379021D01*
X132137017Y-111709809D01*
X132390191Y-111962983D01*
X132720979Y-112100000D01*
X133079021Y-112100000D01*
X133409809Y-111962983D01*
X133662983Y-111709809D01*
X133800000Y-111379021D01*
X133800000Y-111131666D01*
X133865186Y-111034109D01*
X133881135Y-110953927D01*
X134001982Y-111074774D01*
X133900000Y-111320979D01*
X133900000Y-111679021D01*
X134037017Y-112009809D01*
X134290191Y-112262983D01*
X134620979Y-112400000D01*
X134979021Y-112400000D01*
X135309809Y-112262983D01*
X135562983Y-112009809D01*
X135700000Y-111679021D01*
X135700000Y-111448528D01*
X135782480Y-111366047D01*
X135832574Y-111332576D01*
X135921159Y-111200000D01*
X135965186Y-111134110D01*
X135993813Y-110990191D01*
X135999999Y-110959092D01*
X135999999Y-110959089D01*
X136011752Y-110900001D01*
X135999999Y-110840913D01*
X135999999Y-100164213D01*
X137782485Y-98381729D01*
X137832575Y-98348260D01*
X137866045Y-98298169D01*
X137866048Y-98298166D01*
X137965187Y-98149793D01*
X137969408Y-98128573D01*
X138000000Y-97974776D01*
X138000000Y-97974773D01*
X138000492Y-97972300D01*
X138162983Y-97809809D01*
X138300000Y-97479021D01*
X138300000Y-97120979D01*
X138162983Y-96790191D01*
X137909809Y-96537017D01*
X137579021Y-96400000D01*
X137220979Y-96400000D01*
X137100000Y-96450111D01*
X137100000Y-93872792D01*
X137262983Y-93709809D01*
X137400000Y-93379021D01*
X137400000Y-93020979D01*
X137262983Y-92690191D01*
X137009809Y-92437017D01*
X136679021Y-92300000D01*
X136320979Y-92300000D01*
X135990191Y-92437017D01*
X135900000Y-92527208D01*
X135709809Y-92337017D01*
X135379021Y-92200000D01*
X135020979Y-92200000D01*
X134690191Y-92337017D01*
X134437017Y-92590191D01*
X134300000Y-92920979D01*
X134300000Y-93279021D01*
X134437017Y-93609809D01*
X134690191Y-93862983D01*
X134999999Y-93991310D01*
X135000000Y-98322900D01*
X132917521Y-100405380D01*
X132867424Y-100438854D01*
X132734812Y-100637322D01*
X132699999Y-100812339D01*
X132699999Y-100812343D01*
X132688246Y-100871429D01*
X132699999Y-100930515D01*
X132700000Y-110308690D01*
X132390191Y-110437017D01*
X132137017Y-110690191D01*
X132000000Y-111020979D01*
X130200000Y-111020979D01*
X130200000Y-105591310D01*
X130220979Y-105600000D01*
X130579021Y-105600000D01*
X130909809Y-105462983D01*
X131162983Y-105209809D01*
X131300000Y-104879021D01*
X131300000Y-104520979D01*
X131162983Y-104190191D01*
X131100000Y-104127208D01*
X131100000Y-77000000D01*
X154580409Y-77000000D01*
X154600000Y-77098490D01*
X154600000Y-77401511D01*
X154600001Y-78601507D01*
X154600000Y-78601511D01*
X154600001Y-79898490D01*
X154658022Y-80190181D01*
X154879041Y-80520960D01*
X155209820Y-80741979D01*
X155600000Y-80819591D01*
X155990181Y-80741979D01*
X156320960Y-80520960D01*
X156400001Y-80402667D01*
X156479041Y-80520960D01*
X156809820Y-80741979D01*
X157200000Y-80819591D01*
X157590181Y-80741979D01*
X157920960Y-80520960D01*
X158141979Y-80190181D01*
X158200000Y-79898490D01*
X158200000Y-77914212D01*
X160914213Y-75200000D01*
X162320102Y-75200000D01*
X161362540Y-76157563D01*
X161279041Y-76213355D01*
X161112543Y-76462538D01*
X161058021Y-76544135D01*
X160980409Y-76934315D01*
X161000000Y-77032805D01*
X161000000Y-77401511D01*
X161000001Y-78501507D01*
X161000000Y-78501511D01*
X161000001Y-79798490D01*
X161058022Y-80090181D01*
X161279041Y-80420960D01*
X161609820Y-80641979D01*
X162000000Y-80719591D01*
X162390181Y-80641979D01*
X162720960Y-80420960D01*
X162800001Y-80302667D01*
X162879041Y-80420960D01*
X163209820Y-80641979D01*
X163600000Y-80719591D01*
X163990181Y-80641979D01*
X164320960Y-80420960D01*
X164541979Y-80090181D01*
X164600000Y-79798490D01*
X164600000Y-78100001D01*
X169401509Y-78100001D01*
X169499999Y-78119592D01*
X169598489Y-78100001D01*
X169890180Y-78041980D01*
X170220959Y-77820961D01*
X170276753Y-77737459D01*
X176112052Y-71902161D01*
X191199470Y-71902161D01*
X191199470Y-72697759D01*
X191503932Y-73432795D01*
X192066505Y-73995368D01*
X192801541Y-74299830D01*
X193597139Y-74299830D01*
X194332175Y-73995368D01*
X194894748Y-73432795D01*
X195199210Y-72697759D01*
X195199210Y-71902161D01*
X194894748Y-71167125D01*
X194332175Y-70604552D01*
X193597139Y-70300090D01*
X192801541Y-70300090D01*
X192066505Y-70604552D01*
X191503932Y-71167125D01*
X191199470Y-71902161D01*
X176112052Y-71902161D01*
X176637464Y-71376750D01*
X176720960Y-71320960D01*
X176941979Y-70990181D01*
X177000000Y-70698490D01*
X177000000Y-70698489D01*
X177019591Y-70600000D01*
X177009417Y-70548852D01*
X177639569Y-70809870D01*
X178360391Y-70809870D01*
X179026344Y-70534023D01*
X179536043Y-70024324D01*
X179811890Y-69358371D01*
X179811890Y-68637549D01*
X180186030Y-68637549D01*
X180186030Y-69358371D01*
X180461877Y-70024324D01*
X180971576Y-70534023D01*
X181637529Y-70809870D01*
X182358351Y-70809870D01*
X183024304Y-70534023D01*
X183534003Y-70024324D01*
X183809850Y-69358371D01*
X183809850Y-68637549D01*
X183534003Y-67971596D01*
X183024304Y-67461897D01*
X182358351Y-67186050D01*
X181637529Y-67186050D01*
X180971576Y-67461897D01*
X180461877Y-67971596D01*
X180186030Y-68637549D01*
X179811890Y-68637549D01*
X179536043Y-67971596D01*
X179026344Y-67461897D01*
X178360391Y-67186050D01*
X178128163Y-67186050D01*
X178776749Y-66537464D01*
X178855756Y-66419223D01*
X178972596Y-66536063D01*
X179638549Y-66811910D01*
X180359371Y-66811910D01*
X181025324Y-66536063D01*
X181535023Y-66026364D01*
X181810870Y-65360411D01*
X181810870Y-64639589D01*
X181535023Y-63973636D01*
X181025324Y-63463937D01*
X180359371Y-63188090D01*
X179638549Y-63188090D01*
X178999980Y-63452594D01*
X178999980Y-62549023D01*
X179026344Y-62538103D01*
X179536043Y-62028404D01*
X179811890Y-61362451D01*
X179811890Y-60641629D01*
X180186030Y-60641629D01*
X180186030Y-61362451D01*
X180461877Y-62028404D01*
X180971576Y-62538103D01*
X181637529Y-62813950D01*
X182358351Y-62813950D01*
X183024304Y-62538103D01*
X183534003Y-62028404D01*
X183809850Y-61362451D01*
X183809850Y-60641629D01*
X183534003Y-59975676D01*
X183024304Y-59465977D01*
X182358351Y-59190130D01*
X181637529Y-59190130D01*
X180971576Y-59465977D01*
X180461877Y-59975676D01*
X180186030Y-60641629D01*
X179811890Y-60641629D01*
X179536043Y-59975676D01*
X179026344Y-59465977D01*
X178360391Y-59190130D01*
X177639569Y-59190130D01*
X176973616Y-59465977D01*
X176463917Y-59975676D01*
X176188070Y-60641629D01*
X176188070Y-61362451D01*
X176463917Y-62028404D01*
X176973616Y-62538103D01*
X176999981Y-62549024D01*
X176999980Y-63453646D01*
X176358871Y-63188090D01*
X175638049Y-63188090D01*
X174999480Y-63452594D01*
X174999480Y-62549023D01*
X175025844Y-62538103D01*
X175535543Y-62028404D01*
X175811390Y-61362451D01*
X175811390Y-60641629D01*
X175535543Y-59975676D01*
X175025844Y-59465977D01*
X174359891Y-59190130D01*
X173639069Y-59190130D01*
X172973116Y-59465977D01*
X172463417Y-59975676D01*
X172187570Y-60641629D01*
X172187570Y-61362451D01*
X172463417Y-62028404D01*
X172973116Y-62538103D01*
X172999480Y-62549024D01*
X172999480Y-63453646D01*
X172358371Y-63188090D01*
X171637549Y-63188090D01*
X170998980Y-63452594D01*
X170998980Y-62549023D01*
X171025344Y-62538103D01*
X171535043Y-62028404D01*
X171810890Y-61362451D01*
X171810890Y-60641629D01*
X171535043Y-59975676D01*
X171025344Y-59465977D01*
X170359391Y-59190130D01*
X169638569Y-59190130D01*
X168972616Y-59465977D01*
X168462917Y-59975676D01*
X168187070Y-60641629D01*
X168187070Y-61362451D01*
X168462917Y-62028404D01*
X168972616Y-62538103D01*
X168998980Y-62549024D01*
X168998980Y-63452594D01*
X168360411Y-63188090D01*
X167639589Y-63188090D01*
X167001020Y-63452594D01*
X167001020Y-62549023D01*
X167027384Y-62538103D01*
X167537083Y-62028404D01*
X167812930Y-61362451D01*
X167812930Y-60641629D01*
X167537083Y-59975676D01*
X167027384Y-59465977D01*
X166361431Y-59190130D01*
X165640609Y-59190130D01*
X164974656Y-59465977D01*
X164464957Y-59975676D01*
X164189110Y-60641629D01*
X164189110Y-61362451D01*
X164464957Y-62028404D01*
X164974656Y-62538103D01*
X165001020Y-62549024D01*
X165001020Y-63452594D01*
X164362451Y-63188090D01*
X163641629Y-63188090D01*
X162975676Y-63463937D01*
X162465977Y-63973636D01*
X162190130Y-64639589D01*
X162190130Y-65360411D01*
X162465977Y-66026364D01*
X162975676Y-66536063D01*
X163641629Y-66811910D01*
X163773878Y-66811910D01*
X163362542Y-67223246D01*
X163279040Y-67279040D01*
X163104798Y-67539811D01*
X163026884Y-67461897D01*
X162360931Y-67186050D01*
X161640109Y-67186050D01*
X160974156Y-67461897D01*
X160464457Y-67971596D01*
X160188610Y-68637549D01*
X160188610Y-69358371D01*
X160464457Y-70024324D01*
X160974156Y-70534023D01*
X161640109Y-70809870D01*
X162275917Y-70809870D01*
X161485788Y-71600000D01*
X160098490Y-71600000D01*
X160000000Y-71580409D01*
X159901510Y-71600000D01*
X159609819Y-71658021D01*
X159279040Y-71879040D01*
X159223248Y-71962539D01*
X154962540Y-76223248D01*
X154879041Y-76279040D01*
X154658021Y-76609819D01*
X154658021Y-76609820D01*
X154580409Y-77000000D01*
X131100000Y-77000000D01*
X131100000Y-71902161D01*
X140800790Y-71902161D01*
X140800790Y-72697759D01*
X141105252Y-73432795D01*
X141667825Y-73995368D01*
X142402861Y-74299830D01*
X143198459Y-74299830D01*
X143933495Y-73995368D01*
X144496068Y-73432795D01*
X144800530Y-72697759D01*
X144800530Y-71902161D01*
X144496068Y-71167125D01*
X143933495Y-70604552D01*
X143198459Y-70300090D01*
X142402861Y-70300090D01*
X141667825Y-70604552D01*
X141105252Y-71167125D01*
X140800790Y-71902161D01*
X131100000Y-71902161D01*
X131100000Y-71772792D01*
X131162983Y-71709809D01*
X131300000Y-71379021D01*
X131300000Y-71020979D01*
X131162983Y-70690191D01*
X130909809Y-70437017D01*
X130820442Y-70400000D01*
X134427208Y-70400000D01*
X134590191Y-70562983D01*
X134920979Y-70700000D01*
X135279021Y-70700000D01*
X135609809Y-70562983D01*
X135862983Y-70309809D01*
X136000000Y-69979021D01*
X136000000Y-69620979D01*
X135862983Y-69290191D01*
X135609809Y-69037017D01*
X135279021Y-68900000D01*
X134920979Y-68900000D01*
X134590191Y-69037017D01*
X134427208Y-69200000D01*
X130559086Y-69200000D01*
X130499999Y-69188247D01*
X130440913Y-69200000D01*
X130440909Y-69200000D01*
X130265892Y-69234813D01*
X130067425Y-69367425D01*
X130033953Y-69417519D01*
X129550000Y-69901473D01*
X129550000Y-68637549D01*
X152190150Y-68637549D01*
X152190150Y-69358371D01*
X152465997Y-70024324D01*
X152975696Y-70534023D01*
X153641649Y-70809870D01*
X154362471Y-70809870D01*
X155028424Y-70534023D01*
X155538123Y-70024324D01*
X155813970Y-69358371D01*
X155813970Y-68637549D01*
X156188110Y-68637549D01*
X156188110Y-69358371D01*
X156463957Y-70024324D01*
X156973656Y-70534023D01*
X157639609Y-70809870D01*
X158360431Y-70809870D01*
X159026384Y-70534023D01*
X159536083Y-70024324D01*
X159811930Y-69358371D01*
X159811930Y-68637549D01*
X159536083Y-67971596D01*
X159026384Y-67461897D01*
X158360431Y-67186050D01*
X157639609Y-67186050D01*
X156973656Y-67461897D01*
X156463957Y-67971596D01*
X156188110Y-68637549D01*
X155813970Y-68637549D01*
X155538123Y-67971596D01*
X155028424Y-67461897D01*
X154362471Y-67186050D01*
X153641649Y-67186050D01*
X152975696Y-67461897D01*
X152465997Y-67971596D01*
X152190150Y-68637549D01*
X129550000Y-68637549D01*
X129550000Y-64639589D01*
X154189130Y-64639589D01*
X154189130Y-65360411D01*
X154464977Y-66026364D01*
X154974676Y-66536063D01*
X155640629Y-66811910D01*
X156361451Y-66811910D01*
X157027404Y-66536063D01*
X157537103Y-66026364D01*
X157812950Y-65360411D01*
X157812950Y-64639589D01*
X158189630Y-64639589D01*
X158189630Y-65360411D01*
X158465477Y-66026364D01*
X158975176Y-66536063D01*
X159641129Y-66811910D01*
X160361951Y-66811910D01*
X161027904Y-66536063D01*
X161537603Y-66026364D01*
X161813450Y-65360411D01*
X161813450Y-64639589D01*
X161537603Y-63973636D01*
X161027904Y-63463937D01*
X160361951Y-63188090D01*
X159641129Y-63188090D01*
X158975176Y-63463937D01*
X158465477Y-63973636D01*
X158189630Y-64639589D01*
X157812950Y-64639589D01*
X157537103Y-63973636D01*
X157027404Y-63463937D01*
X156361451Y-63188090D01*
X155640629Y-63188090D01*
X154974676Y-63463937D01*
X154464977Y-63973636D01*
X154189130Y-64639589D01*
X129550000Y-64639589D01*
X129550000Y-59690130D01*
X152180355Y-59690130D01*
X152180355Y-62313950D01*
X152219161Y-62509040D01*
X152329670Y-62674430D01*
X152495060Y-62784939D01*
X152690150Y-62823745D01*
X155313970Y-62823745D01*
X155509060Y-62784939D01*
X155674450Y-62674430D01*
X155784959Y-62509040D01*
X155823765Y-62313950D01*
X155823765Y-60641629D01*
X156188110Y-60641629D01*
X156188110Y-61362451D01*
X156463957Y-62028404D01*
X156973656Y-62538103D01*
X157639609Y-62813950D01*
X158360431Y-62813950D01*
X159026384Y-62538103D01*
X159536083Y-62028404D01*
X159811930Y-61362451D01*
X159811930Y-60641629D01*
X160188610Y-60641629D01*
X160188610Y-61362451D01*
X160464457Y-62028404D01*
X160974156Y-62538103D01*
X161640109Y-62813950D01*
X162360931Y-62813950D01*
X163026884Y-62538103D01*
X163536583Y-62028404D01*
X163812430Y-61362451D01*
X163812430Y-60641629D01*
X163536583Y-59975676D01*
X163026884Y-59465977D01*
X162360931Y-59190130D01*
X161640109Y-59190130D01*
X160974156Y-59465977D01*
X160464457Y-59975676D01*
X160188610Y-60641629D01*
X159811930Y-60641629D01*
X159536083Y-59975676D01*
X159026384Y-59465977D01*
X158360431Y-59190130D01*
X157639609Y-59190130D01*
X156973656Y-59465977D01*
X156463957Y-59975676D01*
X156188110Y-60641629D01*
X155823765Y-60641629D01*
X155823765Y-59690130D01*
X155784959Y-59495040D01*
X155674450Y-59329650D01*
X155509060Y-59219141D01*
X155313970Y-59180335D01*
X152690150Y-59180335D01*
X152495060Y-59219141D01*
X152329670Y-59329650D01*
X152219161Y-59495040D01*
X152180355Y-59690130D01*
X129550000Y-59690130D01*
X129550000Y-53804661D01*
X142301930Y-53804661D01*
X142301930Y-54600259D01*
X142606392Y-55335295D01*
X143168965Y-55897868D01*
X143904001Y-56202330D01*
X144699599Y-56202330D01*
X145434635Y-55897868D01*
X145997208Y-55335295D01*
X146301670Y-54600259D01*
X146301670Y-53804661D01*
X189698330Y-53804661D01*
X189698330Y-54600259D01*
X190002792Y-55335295D01*
X190565365Y-55897868D01*
X191300401Y-56202330D01*
X192095999Y-56202330D01*
X192831035Y-55897868D01*
X193393608Y-55335295D01*
X193698070Y-54600259D01*
X193698070Y-53804661D01*
X193393608Y-53069625D01*
X192831035Y-52507052D01*
X192095999Y-52202590D01*
X191300401Y-52202590D01*
X190565365Y-52507052D01*
X190002792Y-53069625D01*
X189698330Y-53804661D01*
X146301670Y-53804661D01*
X145997208Y-53069625D01*
X145434635Y-52507052D01*
X144699599Y-52202590D01*
X143904001Y-52202590D01*
X143168965Y-52507052D01*
X142606392Y-53069625D01*
X142301930Y-53804661D01*
X129550000Y-53804661D01*
X129550000Y-51030746D01*
X129589396Y-50679522D01*
X129695454Y-50374966D01*
X129866348Y-50101478D01*
X130093585Y-49872648D01*
X130365876Y-49699848D01*
X130669681Y-49591668D01*
X131019122Y-49550000D01*
X204969254Y-49550000D01*
X205320478Y-49589396D01*
M02*
