M48
INCH,TZ
T1C0.0157
T2C0.0688
T3C0.0787
%
G90
G05
T1
X51181Y-21260
X51181Y-24488
X51181Y-27087
X51299Y-45827
X51339Y-28031
X51339Y-41220
X51575Y-50276
X51969Y-47126
X52047Y-46732
X52087Y-42047
X52108Y-45854
X52126Y-33189
X52323Y-43780
X52402Y-19685
X52559Y-31575
X52677Y-52402
X52835Y-38701
X52930Y-36398
X52992Y-43465
X53071Y-38150
X53071Y-43898
X53110Y-50157
X53150Y-53898
X53189Y-27480
X53228Y-36654
X53504Y-46457
X53543Y-25276
X53622Y-27953
X53622Y-43740
X53701Y-47756
X53740Y-36693
X53740Y-45039
X54016Y-38661
X54213Y-44921
X54252Y-46102
X54606Y-47126
X54686Y-42877
X54764Y-44921
X54843Y-45709
X54882Y-32244
X54921Y-46732
X54960Y-42043
X55236Y-46417
X55266Y-42377
X55315Y-44961
X55354Y-36614
X55394Y-49803
X55472Y-50394
X55591Y-30669
X55591Y-38110
X55630Y-48030
X55666Y-43503
X55669Y-25866
X55669Y-45354
X55734Y-43050
X55827Y-36607
X55969Y-48380
X56063Y-52165
X56102Y-45039
X56102Y-47165
X56102Y-49843
X56220Y-43622
X56299Y-36575
X56299Y-38583
X56417Y-47992
X56496Y-22441
X56496Y-46890
X56693Y-43543
X56693Y-44921
X56693Y-53189
X56890Y-19685
X56890Y-43071
X57087Y-49409
X57126Y-44449
X57244Y-27913
X57402Y-53150
X57441Y-32205
X57835Y-52953
X57921Y-36569
X57957Y-46963
X57992Y-51850
X58031Y-44724
X58071Y-30866
X58071Y-38110
X58109Y-47951
X58268Y-53031
X58307Y-36646
X58461Y-48150
X58465Y-44606
X58819Y-38583
X58858Y-44488
X58898Y-36654
X59016Y-47008
X59055Y-22559
X59591Y-45747
X59764Y-25236
X59961Y-32244
X60000Y-50039
X60276Y-54016
X60433Y-30906
X60591Y-36575
X60591Y-38150
X60630Y-19685
X60866Y-49449
X61063Y-36674
X61260Y-30512
X61260Y-30984
X61260Y-31417
X61292Y-38661
X61484Y-36654
X61535Y-20984
X61772Y-52913
X61890Y-30512
X61890Y-30984
X61890Y-31417
X62362Y-53425
X62480Y-32244
X62677Y-53898
X62874Y-30827
X63071Y-36575
X63110Y-21693
X63110Y-38150
X63499Y-36732
X63504Y-51299
X63780Y-30512
X63780Y-30945
X63780Y-31378
X63851Y-38661
X63937Y-36685
X64409Y-30512
X64409Y-30945
X64409Y-31378
X64724Y-19646
X65000Y-32244
X65118Y-52165
X65394Y-30984
X65543Y-36550
X65630Y-38150
X65964Y-36753
X66457Y-36685
X66654Y-38661
X67008Y-53110
X67480Y-32244
X67559Y-51142
X67835Y-21142
X67913Y-30709
X68071Y-36614
X68150Y-38150
X68512Y-36740
X68937Y-36614
X69252Y-38661
X69252Y-54173
X69488Y-50118
X69843Y-19724
X69921Y-27992
X69961Y-32244
X70315Y-30709
X70512Y-36614
X70669Y-38110
X70945Y-36607
X71378Y-38228
X71457Y-36614
X71969Y-53701
X72205Y-47441
X72480Y-26457
X72520Y-32244
X72559Y-28346
X72677Y-30906
X72913Y-23622
X73110Y-36575
X73150Y-21142
X73189Y-38150
X73268Y-52441
X73543Y-36614
X73976Y-36614
X74134Y-38701
X74449Y-53661
X74646Y-46811
X74843Y-48780
X75000Y-19685
X75039Y-32283
X75197Y-30906
X75512Y-36496
X75709Y-38110
X75787Y-50157
X76063Y-36614
X76299Y-23346
X76496Y-36575
X76772Y-38661
X76969Y-54409
X77323Y-45433
X77480Y-28031
X77559Y-31024
X78937Y-33031
X79233Y-31795
X79449Y-19646
X79528Y-31102
X80201Y-31680
X80276Y-33031
X80945Y-54094
X81063Y-24764
X81063Y-50315
X81102Y-21496
X81102Y-28110
X81102Y-41575
X81102Y-46063
T2
X64568Y-46851
X64568Y-49999
X65355Y-48425
X66142Y-46851
X66142Y-49999
X66929Y-48425
X67716Y-46851
X67716Y-49999
X60631Y-24017
X60631Y-27165
X61418Y-25591
X62205Y-24017
X62205Y-27165
X62993Y-25591
X63780Y-24017
X63780Y-27165
X64568Y-25591
X65355Y-24017
X65355Y-27165
X66142Y-25591
X66929Y-24017
X66929Y-27165
X67716Y-25591
X68504Y-24017
X68504Y-27165
X69291Y-25591
X70079Y-24017
X70079Y-27165
X70866Y-25591
X71653Y-24017
X71653Y-27165
T3
X60158Y-51299
X60749Y-44174
X71535Y-44174
X72126Y-51299
X56221Y-28465
X56812Y-21340
X75472Y-21340
X76063Y-28465
T0
M30
